<?xml version="1.0" encoding="iso-8859-1"?>
<!-- Generator: Adobe Illustrator 18.1.1, SVG Export Plug-In . SVG Version: 6.00 Build 0)  -->
<svg version="1.1" id="Capa_1" xmlns="http://www.w3.org/2000/svg" xmlns:xlink="http://www.w3.org/1999/xlink" x="0px" y="0px"
	 viewBox="0 0 207.392 207.392" style="enable-background:new 0 0 207.392 207.392;" xml:space="preserve">
<g>
	<g>
		<g>
			<path style="fill:#010002;" d="M200.121,33.839c-1.768-1.542-3.45-3.013-4.287-4.563c1.571-3.06,2.459-11.585,2.448-13.696
				l-0.043-0.322c-0.311-1.102-1.163-1.75-2.308-1.75c-1.471,0-3.26,1.074-4.985,2.119c-0.075,0.047-0.15,0.089-0.233,0.14
				c-0.018-2.97-0.895-7.083-1.786-9.437l-0.408-0.805h-0.852c-4.513,0-4.713,4.996-4.846,8.289
				c-0.036,0.755-0.075,1.789-0.172,2.441c-0.047,0-0.079,0-0.079,0l-0.78,0.021c-0.741,0-2.695,0-5.565-6.08
				c-0.82-1.7-1.596-2.834-2.727-2.834c-0.462,0-0.88,0.197-1.195,0.551c-1.031,1.177-1.056,5.948-0.075,14.183
				c-11.427,2.197-18.513,10.329-24.794,18.496c-2.194,2.86-3.99,7.455-5.894,12.311c-4.427,11.309-9.452,24.132-21.512,24.139
				c-1.095,0.14-2.226,0.208-3.361,0.208c-16.091,0-32.818-13.868-45.029-23.989c-3.003-2.487-5.837-4.846-8.314-6.696
				c-0.848-1.206-1.768-2.659-2.759-4.227c-5.075-7.977-12.165-19.104-21.738-17.841c-2.831,0.369-4.692,2.187-6.488,3.944
				c-1.632,1.596-3.318,3.25-5.798,3.897c-2.738,0.666-26.759,6.803-26.126,16.28c0.34,5.154,10.49,10.482,20.12,14.405
				c-0.848-0.075-1.657-0.122-2.398-0.122c-1.861,0-4.402,0.211-5.086,2.065c-0.598,1.614,0.544,3.547,3.715,6.27
				c1.832,1.56,6.499,3.318,11.907,5.354c5.372,2.033,11.721,4.427,15.708,6.864c-1.235-0.333-2.634-0.73-4.012-1.113
				c-5.923-1.664-12.633-3.561-15.869-3.561c-0.855,0-2.051,0.115-2.613,1.063c-0.193,0.344-0.447,1.063,0.104,2.051
				c2.727,4.874,18.893,17.783,20.847,19.333l1.675,2.681c-1.589,4.259,5.98,12.963,9.42,16.609
				c-0.701,0.787-0.619,1.922-0.551,2.92c0.021,0.401,0.064,0.798,0.018,1.124l-0.086,0.666l0.515,0.433
				c3.157,2.648,4.434,5.594,5.769,8.707c0.941,2.197,1.918,4.474,3.582,6.717c4.23,5.683,11.459,7.784,19.111,10.006
				c10.49,3.049,21.33,6.191,24.962,19.014c0.458,2.401,1.306,4.395,2.137,6.31c1.285,3.01,2.509,5.859,2.233,10.228
				c-1.149,0.802-3.726,1.296-6.034,1.739c-4.098,0.798-8.346,1.618-9.43,4.506l-0.562,1.492l1.596,0.161
				c3.328,0.34,7.165-0.433,10.855-1.174c4.699-0.963,9.649-1.732,12.547-0.48c-0.208,0.254-0.429,0.508-0.666,0.759
				c-0.855,0.966-1.829,2.044-2.233,3.726l-0.293,1.213l1.206,0.279c2.448,0.562,4.638-0.333,6.556-1.245
				c1.36-0.651,2.645-1.267,4.191-1.328c4.144-0.233,8.299,1.428,12.279,2.981c3.396,1.331,6.614,2.584,9.598,2.584
				c1.006,0,1.911-0.132,2.777-0.419l3.847-1.17l-3.761-1.124c-0.247-0.154-0.68-0.744-0.884-1.177c0.966-0.129,2.87-0.097,5-0.029
				c1.253,0.036,2.591,0.079,3.926,0.079c3.278,0,7.319-0.229,9.606-1.983l0.959-0.737l-0.719-0.97
				c-0.902-1.188-2.326-1.671-3.579-2.083c-0.533-0.179-1.038-0.347-1.467-0.551c0.92-1.066,0.727-2.416,0.608-3.253
				c-0.086-0.641-0.132-1.063,0.021-1.242l1.84-2.065l-2.759,0.021c-2.938,0.025-3.829,2.226-4.477,3.833
				c-0.587,1.453-0.938,2.108-1.779,2.258c-0.741,0.115-1.564,0.168-2.43,0.168c-4.366,0-9.309-1.446-12.916-2.498
				c-2.222-0.655-3.858-1.131-4.924-1.163c-5.397-4.098-8.586-10.597-9.477-19.369c8.682-1.16,13.99-9.101,18.692-16.144
				c3.411-5.111,6.635-9.942,10.729-11.989c22.844-2.459,35.627-21.13,39.077-57.101c1.063-10.958-2.126-17.343-5.494-24.118
				c-1.292-2.602-2.627-5.282-3.726-8.278c1.217-0.537,2.416-1.324,3.672-2.137c2.466-1.596,5.01-3.25,7.845-3.25
				c1.26,0,2.48,0.322,3.733,0.97l1.696,0.891l0.093-1.911C207.247,40.08,203.464,36.759,200.121,33.839z M164.447,189.905
				c0.225-0.58,0.429-1.034,0.626-1.374c0.011,0.086,0.029,0.172,0.039,0.251c0.161,1.195,0.154,1.364-0.637,1.661l-0.308,0.118
				C164.268,190.335,164.358,190.113,164.447,189.905z M201.431,42.915c-3.557,0-6.542,1.936-9.183,3.64
				c-1.514,0.981-2.949,1.918-4.248,2.301l-1.213,0.369l0.408,1.206c1.21,3.618,2.756,6.707,4.245,9.695
				c3.207,6.453,6.238,12.537,5.254,22.79c-3.339,34.733-15.479,52.699-37.113,54.91l-0.401,0.111
				c-4.785,2.294-8.239,7.458-11.9,12.941c-4.831,7.233-9.835,14.723-18.045,15.171l-1.245,0.072l0.089,1.253
				c0.787,10.311,4.459,17.923,10.93,22.604l0.48,0.293l0.487-0.072c0.712,0,2.491,0.519,4.377,1.074
				c4.538,1.331,11.259,3.192,16.43,2.401c1.374-0.24,2.205-1.034,2.777-1.929l0.315,0.501c0.873,1.378,2.405,1.886,3.751,2.333
				c0.322,0.104,0.637,0.215,0.938,0.322c-1.9,0.573-4.449,0.662-6.42,0.662c-1.306,0-2.616-0.047-3.844-0.086
				c-2.552-0.079-4.703-0.089-5.68,0.104c-1.324,0.15-1.868,1.056-1.947,1.861c-0.05,0.598,0.175,1.31,0.533,1.965
				c-2.512-0.011-5.504-1.17-8.668-2.412c-3.801-1.485-8.106-3.171-12.526-3.171c-0.247,0-0.508,0.007-0.759,0.014
				c-2.047,0.089-3.697,0.877-5.146,1.571c-1.199,0.573-2.255,1.074-3.403,1.174c0.301-0.44,0.669-0.841,1.063-1.281
				c0.598-0.673,1.213-1.364,1.689-2.269l0.508-0.973l-0.909-0.612c-1.714-1.17-3.851-1.736-6.531-1.736
				c-2.824,0-5.952,0.637-8.969,1.253c-2.262,0.455-4.581,0.93-6.743,1.12c1.517-0.551,3.504-0.938,5.25-1.274
				c3.178-0.612,6.166-1.192,7.63-2.702l0.304-0.319l0.036-0.429c0.462-5.275-0.981-8.643-2.38-11.903
				c-0.805-1.882-1.568-3.658-2.008-5.902c-2.076-7.365-6.31-11.832-11.374-14.877c11.18-1.088,25.077-12.508,31.025-21.437
				c8.561-13.36,4.488-24.744,0.179-36.801c-0.845-2.351-1.707-4.753-2.498-7.236l-2.341,0.744c0.805,2.516,1.671,4.942,2.527,7.319
				c4.273,11.968,7.974,22.303,0.079,34.633c-6.052,9.069-21.52,21.48-32.024,20.353l-0.086,0.744
				c-3.908-1.854-8.128-3.081-12.147-4.248c-7.244-2.101-14.09-4.094-17.823-9.112c-1.5-2.015-2.373-4.058-3.3-6.216
				c-1.331-3.103-2.709-6.302-5.98-9.223c0-0.293-0.018-0.598-0.039-0.909c-0.021-0.258-0.047-0.637-0.039-0.913
				c0.054,0.011,0.104,0.025,0.172,0.047l6.027,2.033l-4.839-4.134c-3.038-2.591-11.982-13.56-10.271-15.657l0.555-0.684
				l-2.634-4.219l-0.283-0.308c-4.695-3.715-16.957-13.825-20.027-18.188h0.004c2.895,0,9.72,1.922,15.203,3.461
				c4.706,1.321,7.423,2.072,8.571,2.072c0.913,0,1.285-0.494,1.421-0.787l0.276-0.866l-0.469-0.608
				c-3.003-3.833-12.011-7.222-19.966-10.225c-4.971-1.868-9.666-3.647-11.173-4.928c-3.013-2.584-3.006-3.525-3.006-3.525
				c0.011-0.025,0.483-0.476,2.784-0.476c6.499,0,19.158,3.507,19.283,3.547l0.676-2.366C24.686,62.62,3.256,54.213,2.876,48.473
				c-0.372-5.601,14.68-11.402,24.275-13.736c3.131-0.82,5.146-2.788,6.918-4.524c1.646-1.607,3.071-3.003,5.078-3.26
				c8.128-1.056,14.62,9.276,19.351,16.72c1.056,1.671,2.036,3.207,2.935,4.484l0.268,0.268c2.462,1.836,5.332,4.212,8.371,6.732
				c12.505,10.368,29.622,24.558,46.6,24.558c1.242,0,2.473-0.075,3.518-0.215c13.582,0,19.161-14.247,23.642-25.689
				c1.84-4.703,3.572-9.133,5.554-11.717c6.446-8.382,13.163-16.051,24.401-17.765l1.177-0.179l-0.15-1.188
				c-0.608-4.857-0.913-9.359-0.837-11.774c0.011,0.021,0.025,0.054,0.036,0.075c3.128,6.624,5.798,7.473,7.78,7.473l0.705-0.018
				l0.626,0.809l0.973-0.83c1.02-0.873,1.092-2.595,1.177-4.774c0.143-3.393,0.44-5.282,1.682-5.794
				c1.109,3.493,1.6,8.124,1.124,9.326l-0.83,2.144l2.244-0.494c0.673-0.143,1.474-0.612,2.727-1.371
				c1.142-0.687,2.852-1.721,3.6-1.807c-0.057,3.661-1.36,11.431-2.273,12.422l-0.548,0.576l0.293,0.73
				c0.93,2.301,3.01,4.123,5.214,6.048c2.577,2.255,5.222,4.577,5.866,7.677C203.392,43.065,202.419,42.915,201.431,42.915z"/>
			<path style="fill:#010002;" d="M151.227,202.27c-3.067,0-6.313-1.267-9.742-2.613l-0.297-0.115
				c-3.615-1.406-7.344-2.86-11.051-2.86c-0.254,0-0.512,0.014-0.759,0.025c-1.485,0.072-2.727,0.662-4.048,1.285
				c-1.482,0.705-3.225,1.457-5.179,1.457c-0.548,0-1.109-0.057-1.639-0.183l-1.607-0.372l0.383-1.614
				c0.429-1.754,1.421-2.877,2.301-3.869c0.115-0.115,0.222-0.229,0.311-0.34c-0.877-0.279-1.976-0.422-3.278-0.422
				c-2.62,0-5.773,0.565-8.5,1.12c-3.099,0.633-6.292,1.267-9.237,1.267c-0.608,0-1.192-0.029-1.739-0.079l-2.129-0.215l0.759-1.997
				c1.16-3.096,5.522-3.94,9.727-4.753c2.158-0.419,4.559-0.884,5.719-1.571c0.218-4.162-0.966-6.925-2.215-9.842
				c-0.787-1.836-1.686-3.922-2.162-6.395c-3.561-12.558-14.298-15.683-24.676-18.696c-7.716-2.24-15.006-4.352-19.322-10.15
				c-1.689-2.276-2.67-4.552-3.611-6.76c-1.338-3.103-2.577-6.005-5.676-8.596l-0.684-0.58l0.111-0.884
				c0.036-0.258,0.011-0.58-0.011-0.923l-0.004-0.122c-0.064-0.923-0.143-2.047,0.419-2.92c-4.191-4.484-10.654-12.286-9.334-16.584
				l-1.528-2.462c-2.101-1.657-18.127-14.455-20.893-19.401c-0.648-1.16-0.34-2.033-0.104-2.459
				c0.755-1.263,2.423-1.263,2.967-1.263c3.25,0,9.892,1.865,15.751,3.507l0.225,0.064c0.186,0.054,0.369,0.104,0.544,0.154
				c-3.686-1.8-8.26-3.529-12.415-5.096l0.018-0.429l-0.143,0.376c-5.418-2.036-10.092-3.804-11.975-5.408
				c-3.318-2.845-4.506-4.921-3.833-6.721c0.769-2.09,3.497-2.33,5.468-2.33h0.072C6.409,57.466,0.282,52.817,0.013,48.648
				c-0.662-9.86,23.663-16.026,26.437-16.699c2.369-0.619,4.019-2.233,5.608-3.794c1.854-1.807,3.761-3.668,6.721-4.051
				c0.519-0.072,1.034-0.104,1.546-0.104c9.076,0,15.729,10.479,20.589,18.13l0.079,0.125c0.938,1.482,1.822,2.877,2.63,4.03
				c2.348,1.757,5.01,3.962,7.831,6.292l0.447,0.372c12.168,10.085,28.824,23.9,44.768,23.9c1.102,0,2.215-0.072,3.31-0.208
				c11.846-0.004,16.803-12.691,21.183-23.875l0.054-0.143c1.9-4.835,3.69-9.398,5.902-12.275
				c6.245-8.128,13.288-16.241,24.669-18.574c-1.428-12.25-0.197-13.657,0.218-14.129c0.39-0.444,0.927-0.687,1.5-0.687
				c1.485,0,2.376,1.578,3.092,3.063c2.759,5.851,4.592,5.851,5.196,5.851l0.501-0.018c0.064-0.587,0.089-1.353,0.118-1.947
				l0.007-0.107c0.129-3.257,0.351-8.679,5.254-8.679h1.109l0.523,1.024c0.816,2.162,1.671,5.873,1.807,8.915
				c1.661-0.998,3.35-1.95,4.831-1.95c1.331,0,2.341,0.762,2.698,2.051l0.057,0.379c0.014,2.154-0.83,10.436-2.394,13.736
				c0.837,1.414,2.412,2.795,4.08,4.252c3.432,2.995,7.294,6.378,6.99,11.828l-0.132,2.541l-2.255-1.185
				c-1.199-0.626-2.358-0.931-3.543-0.931c-2.698,0-5.175,1.607-7.58,3.157l-0.329-0.276l0.225,0.344
				c-1.135,0.741-2.215,1.435-3.318,1.968c1.049,2.806,2.312,5.343,3.529,7.802l-0.311,0.29l0.365-0.186
				c3.389,6.814,6.596,13.256,5.526,24.318c-3.471,36.154-16.348,54.95-39.367,57.458c-3.962,2.018-7.136,6.775-10.508,11.814
				c-4.663,6.993-9.949,14.895-18.581,16.269c0.927,8.389,4.012,14.652,9.18,18.61c1.12,0.075,2.792,0.562,4.889,1.181
				c3.629,1.059,8.518,2.487,12.802,2.487c0.848,0,1.646-0.061,2.366-0.168c0.608-0.107,0.888-0.573,1.46-2.011
				c0.651-1.618,1.639-4.069,4.849-4.087l3.679-0.032l-2.441,2.759c-0.039,0.097,0.036,0.626,0.072,0.913
				c0.107,0.723,0.293,2.011-0.383,3.135c0.297,0.115,0.626,0.225,0.97,0.34c1.249,0.404,2.792,0.916,3.779,2.215l0.966,1.303
				l-1.274,0.977c-2.387,1.84-6.517,2.069-9.856,2.069c-1.188,0-2.387-0.036-3.518-0.072l-0.419-0.011
				c-1.743-0.054-3.361-0.086-4.302-0.029c0.143,0.208,0.29,0.376,0.376,0.451l4.996,1.5l-5.139,1.564
				C153.238,202.127,152.286,202.27,151.227,202.27z M130.14,195.868c3.858,0,7.666,1.482,11.349,2.917l0.293,0.111
				c3.357,1.317,6.531,2.562,9.448,2.562c0.966,0,1.832-0.132,2.648-0.401l2.566-0.78l-2.566-0.787
				c-0.34-0.215-0.82-0.88-1.034-1.349l-0.229-0.497l0.544-0.079c0.462-0.068,1.142-0.097,2.09-0.097
				c0.873,0,1.893,0.032,2.974,0.064l0.419,0.014c1.124,0.036,2.312,0.068,3.497,0.068c3.207,0,7.165-0.218,9.359-1.893l0.644-0.497
				l-0.49-0.651c-0.83-1.099-2.18-1.546-3.375-1.94c-0.551-0.179-1.066-0.351-1.517-0.569l-0.483-0.229l0.347-0.401
				c0.805-0.934,0.633-2.137,0.519-2.924c-0.089-0.701-0.172-1.253,0.125-1.578l1.224-1.371l-1.85,0.011
				c-2.663,0.018-3.461,1.993-4.101,3.575c-0.573,1.428-1.002,2.319-2.09,2.516c-0.769,0.111-1.607,0.165-2.494,0.165
				c-4.398,0-9.359-1.439-12.98-2.494c-2.172-0.641-3.851-1.138-4.871-1.17h-0.132l-0.104-0.079
				c-5.494-4.169-8.729-10.772-9.638-19.651l-0.039-0.387l0.39-0.054c8.507-1.135,13.771-9.022,18.41-15.972
				c3.446-5.157,6.692-10.028,10.883-12.125l0.14-0.039c22.622-2.43,35.28-20.986,38.712-56.736
				c1.052-10.826-2.101-17.164-5.443-23.867l-0.054-0.111c-1.278-2.577-2.609-5.247-3.697-8.239l-0.129-0.354l0.344-0.154
				c1.17-0.523,2.33-1.267,3.554-2.069l0.107-0.068c2.498-1.614,5.086-3.282,8.024-3.282c1.317,0,2.598,0.326,3.922,1.016
				l1.131,0.594l0.064-1.267c0.279-5.053-3.421-8.296-6.692-11.155c-1.814-1.589-3.507-3.067-4.384-4.681l-0.1-0.19l0.1-0.197
				c1.492-2.906,2.412-11.263,2.401-13.507l-0.039-0.272c-0.247-0.866-0.945-1.396-1.9-1.396c-1.367,0-3.182,1.092-4.771,2.061
				c-0.075,0.039-0.154,0.093-0.247,0.143l-0.601,0.344l-0.007-0.698c-0.018-2.953-0.905-7.043-1.754-9.294l-0.276-0.54h-0.608
				c-3.804,0-4.27,3.733-4.445,7.888v0.122c-0.036,0.769-0.075,1.732-0.172,2.376l-0.047,0.344l-1.206,0.021h-0.011
				c-0.834,0-2.97-0.032-5.93-6.31c-0.759-1.564-1.446-2.605-2.358-2.605c-0.34,0-0.655,0.15-0.884,0.412
				c-0.533,0.616-1.249,3.221,0.021,13.864l0.05,0.379l-0.379,0.075c-11.309,2.176-18.327,10.257-24.544,18.342
				c-2.137,2.788-3.905,7.301-5.787,12.079l-0.054,0.136c-4.47,11.434-9.534,24.386-21.888,24.397
				c-1.081,0.14-2.226,0.208-3.361,0.208c-16.237,0-33.029-13.922-45.287-24.086l-0.451-0.369c-2.831-2.348-5.501-4.559-7.848-6.31
				l-0.093-0.093c-0.827-1.185-1.732-2.605-2.684-4.109l-0.079-0.132c-4.76-7.491-11.281-17.744-19.902-17.744
				c-0.476,0-0.959,0.029-1.442,0.093c-2.684,0.351-4.499,2.119-6.252,3.822c-1.671,1.636-3.393,3.328-5.98,4.008
				C25.566,33.012,0.21,39.243,0.836,48.602c0.265,4.019,7.136,8.876,19.87,14.054l2.527,1.024l-2.713-0.236
				c-0.891-0.079-1.664-0.122-2.366-0.122c-1.732,0-4.109,0.183-4.699,1.797c-0.526,1.414,0.612,3.267,3.593,5.819
				c1.775,1.51,6.395,3.25,11.739,5.272l0.1,0.032c5.49,2.072,11.706,4.427,15.708,6.875l2.423,1.482l-2.745-0.741
				c-1.228-0.333-2.616-0.723-3.983-1.109l-0.265-0.075c-5.805-1.632-12.386-3.479-15.529-3.479c-0.752,0-1.8,0.089-2.262,0.859
				c-0.183,0.329-0.315,0.884,0.104,1.643c2.774,4.95,20.017,18.635,20.75,19.215l0.093,0.104l1.779,2.852l-0.068,0.19
				c-1.564,4.18,6.75,13.446,9.334,16.18l0.254,0.272l-0.247,0.279c-0.58,0.655-0.519,1.653-0.455,2.616l0.011,0.125
				c0.029,0.369,0.057,0.748,0.004,1.088l-0.054,0.44l0.347,0.293c3.242,2.72,4.524,5.701,5.876,8.865
				c0.948,2.205,1.911,4.438,3.536,6.632c4.151,5.576,11.316,7.659,18.903,9.856c10.59,3.071,21.545,6.259,25.238,19.297
				c0.465,2.416,1.299,4.37,2.115,6.256c1.313,3.06,2.548,5.941,2.269,10.414l-0.014,0.2l-0.165,0.111
				c-1.22,0.841-3.84,1.353-6.166,1.807c-4.012,0.777-8.138,1.571-9.144,4.245l-0.379,0.998l1.063,0.107
				c0.526,0.054,1.084,0.079,1.664,0.079c2.863,0,6.016-0.641,9.076-1.249c2.763-0.565,5.962-1.142,8.661-1.142
				c1.714,0,3.063,0.225,4.134,0.684l0.494,0.218l-0.344,0.419c-0.215,0.258-0.444,0.523-0.684,0.777
				c-0.873,0.991-1.757,1.986-2.137,3.547l-0.197,0.812l0.805,0.183c0.472,0.115,0.966,0.168,1.457,0.168
				c1.782,0,3.429-0.712,4.831-1.378c1.331-0.641,2.709-1.299,4.355-1.367C129.603,195.875,129.868,195.868,130.14,195.868z
				 M151.889,199.815h-0.687c-2.609-0.018-5.622-1.192-8.818-2.444c-4.019-1.568-8.561-3.296-13.124-3.132
				c-1.961,0.086-3.565,0.855-4.982,1.535c-1.185,0.565-2.305,1.102-3.543,1.217l-0.859,0.075l0.49-0.716
				c0.315-0.455,0.687-0.873,1.092-1.313c0.601-0.68,1.192-1.349,1.636-2.19l0.34-0.651l-0.605-0.408
				c-1.661-1.124-3.718-1.671-6.31-1.671c-2.756,0-5.834,0.623-8.8,1.224l-0.265-0.361l0.079,0.401
				c-2.237,0.451-4.538,0.92-6.685,1.109l-3.092,0.261l2.917-1.056c1.557-0.569,3.547-0.956,5.307-1.292
				c3.114-0.608,6.041-1.17,7.412-2.588l0.204-0.215l0.029-0.286c0.447-5.179-0.973-8.496-2.351-11.706
				c-0.82-1.908-1.589-3.704-2.033-5.991c-1.797-6.37-5.461-11.162-11.184-14.602L97,154.378l1.228-0.122
				c10.59-1.027,24.44-11.821,30.728-21.251c8.45-13.192,4.406-24.49,0.132-36.44c-0.802-2.215-1.614-4.506-2.376-6.864
				l-1.564,0.494c0.787,2.444,1.636,4.817,2.394,6.925c4.316,12.075,8.042,22.493,0.039,34.99
				c-5.744,8.614-20.303,20.614-30.989,20.614c-0.344,0-0.684-0.011-1.016-0.036l-0.104,0.913l-0.515-0.243
				c-3.915-1.857-8.264-3.114-12.089-4.223c-7.312-2.129-14.219-4.13-18.037-9.266c-1.51-2.026-2.387-4.058-3.314-6.216
				c-1.349-3.139-2.709-6.302-5.912-9.162l-0.132-0.122v-0.179c-0.004-0.279-0.021-0.576-0.047-0.877
				c-0.021-0.268-0.047-0.673-0.039-0.952l0.004-0.508l0.494,0.107c0.05,0.011,0.104,0.029,0.157,0.047l4.076,1.374l-3.232-2.759
				c-2.391-2.036-12.454-13.61-10.321-16.234l0.369-0.455l-2.473-3.973l-0.24-0.254C38.611,95.277,27.137,85.7,24.163,81.48
				l-0.447-0.644h0.78c2.931,0,9.731,1.908,15.185,3.439l0.132,0.036c4.538,1.274,7.372,2.061,8.464,2.061
				c0.648,0,0.934-0.304,1.059-0.555l0.183-0.608l-0.336-0.437c-2.927-3.733-11.86-7.1-19.745-10.082
				c-5.053-1.9-9.781-3.686-11.338-5.018c-2.079-1.779-2.813-2.842-3.053-3.429h-0.58l0.558-0.666
				c0.125-0.143,0.712-0.626,3.11-0.626c5.884,0,16.574,2.795,19.004,3.454l0.458-1.589C27.599,63.837,2.894,55.097,2.461,48.483
				c-0.444-6.596,17.594-12.458,24.587-14.162c3.024-0.795,4.996-2.724,6.728-4.42c1.714-1.671,3.174-3.096,5.322-3.375
				c0.397-0.05,0.805-0.075,1.199-0.075c7.755,0,13.925,9.717,18.431,16.813l0.107,0.165c1.024,1.625,2.015,3.185,2.92,4.474
				l0.225,0.218c2.391,1.775,5.218,4.116,8.206,6.589l0.132,0.115C82.771,65.147,99.827,79.29,116.662,79.29
				c1.21,0,2.441-0.075,3.461-0.215c13.356,0,18.878-14.097,23.32-25.421c1.857-4.742,3.6-9.201,5.615-11.821
				c6.496-8.46,13.278-16.194,24.662-17.926l0.787-0.122l-0.104-0.78c-0.594-4.774-0.916-9.312-0.834-11.835l0.047-1.614
				l0.723,1.442c3.063,6.499,5.587,7.326,7.448,7.326l0.898-0.018l0.497,0.63l0.655-0.555c0.884-0.759,0.948-2.405,1.027-4.477
				c0.15-3.622,0.494-5.562,1.936-6.159l0.404-0.165l0.14,0.419c1.102,3.479,1.657,8.239,1.113,9.609l-0.555,1.428l1.503-0.333
				c0.608-0.14,1.392-0.594,2.602-1.328c1.542-0.931,2.985-1.775,3.769-1.865l0.458-0.05l-0.004,0.465
				c-0.054,3.572-1.331,11.556-2.384,12.691l-0.369,0.39l0.197,0.49c0.884,2.205,2.924,3.99,5.086,5.876
				c2.634,2.308,5.343,4.674,6.016,7.909l0.14,0.676l-0.666-0.2c-0.93-0.293-1.875-0.444-2.82-0.444
				c-3.432,0-6.363,1.908-8.954,3.582l-0.089,0.057c-1.51,0.973-2.938,1.9-4.266,2.29l-0.809,0.247l0.268,0.805
				c1.177,3.507,2.67,6.521,4.116,9.437l0.1,0.208c3.242,6.517,6.299,12.655,5.293,23.016
				c-3.357,34.962-15.607,53.039-37.478,55.275l-0.333,0.104c-4.617,2.208-8.038,7.337-11.66,12.751
				c-4.896,7.34-9.949,14.902-18.37,15.368l-0.83,0.05l0.057,0.834c0.787,10.193,4.402,17.697,10.765,22.307l0.326,0.197
				l0.347-0.054h0.011c0.794,0,2.376,0.455,4.538,1.092c3.063,0.898,8.765,2.573,13.628,2.573c0.945,0,1.829-0.064,2.623-0.183
				c1.063-0.19,1.861-0.748,2.502-1.746l0.286-0.447l0.286-0.676c0.104-0.225,0.19-0.44,0.276-0.648
				c0.258-0.669,0.454-1.099,0.655-1.428l0.598-1.027l0.197,1.428c0.172,1.245,0.172,1.7-0.895,2.101l-0.93,0.361l0.53,0.837
				c0.787,1.253,2.233,1.739,3.514,2.165c0.344,0.107,0.662,0.218,0.959,0.326l1.149,0.419l-1.167,0.358
				c-2.004,0.608-4.692,0.676-6.539,0.676c-1.27,0-2.555-0.043-3.754-0.079l-0.104-0.007c-1.049-0.029-2.029-0.054-2.888-0.054
				c-1.285,0-2.197,0.047-2.698,0.15c-1.396,0.161-1.589,1.181-1.618,1.492c-0.039,0.472,0.132,1.092,0.483,1.732L151.889,199.815z
				 M130.004,193.409c4.477,0,8.808,1.689,12.623,3.182c2.895,1.135,5.594,2.194,7.909,2.376c-0.218-0.562-0.315-1.102-0.279-1.568
				c0.089-0.963,0.741-2.051,2.301-2.23c0.533-0.1,1.471-0.161,2.831-0.161c0.863,0,1.857,0.025,2.91,0.064h0.107
				c1.188,0.036,2.459,0.079,3.726,0.079c1.396,0,3.278-0.039,4.932-0.333c-1.303-0.44-2.673-1.002-3.529-2.348
				c-0.712,0.884-1.596,1.41-2.688,1.603c-0.852,0.129-1.779,0.197-2.759,0.197c-4.978,0-10.751-1.696-13.857-2.609
				c-1.682-0.494-3.586-1.056-4.259-1.056l-0.573,0.089l-0.601-0.372c-6.599-4.774-10.329-12.483-11.127-22.923l-0.125-1.675
				l1.668-0.086c8.013-0.44,12.948-7.834,17.726-14.992c3.697-5.529,7.183-10.747,12.061-13.077l0.469-0.143
				c21.484-2.197,33.498-20.042,36.816-54.552c0.981-10.128-2.026-16.159-5.207-22.547L190.97,60.1
				c-1.464-2.938-2.967-5.977-4.162-9.534l-0.537-1.603l1.618-0.494c1.217-0.361,2.602-1.26,4.058-2.201l0.311,0.29l-0.218-0.344
				c2.681-1.739,5.723-3.704,9.394-3.704c0.795,0,1.585,0.089,2.366,0.276c-0.83-2.645-3.235-4.746-5.565-6.786
				c-2.248-1.961-4.355-3.811-5.318-6.199l-0.39-0.977l0.73-0.769c0.727-0.791,1.979-7.652,2.14-11.595
				c-0.83,0.326-2.172,1.142-2.96,1.621c-1.285,0.773-2.119,1.263-2.849,1.421l-2.996,0.655l1.113-2.849
				c0.408-1.027,0.018-5.132-0.973-8.543c-0.709,0.705-0.93,2.487-1.045,5.168c-0.089,2.28-0.161,4.076-1.313,5.068l-1.303,1.109
				l-0.769-0.981l-0.501,0.011c-1.94,0-4.495-0.744-7.408-6.224c0.068,2.577,0.369,6.259,0.837,9.989l0.193,1.585l-1.571,0.236
				c-11.08,1.693-17.737,9.298-24.136,17.615c-1.943,2.534-3.661,6.936-5.49,11.603c-4.542,11.578-10.171,25.95-24.028,25.95
				c-1.006,0.147-2.276,0.218-3.518,0.218c-17.136,0-34.31-14.247-46.858-24.651l-0.132-0.115c-2.992-2.466-5.805-4.803-8.221-6.607
				l-0.315-0.308c-0.966-1.353-1.965-2.928-2.995-4.552l-0.104-0.172c-4.402-6.936-10.44-16.434-17.744-16.434
				c-0.361,0-0.737,0.021-1.099,0.075c-1.872,0.24-3.242,1.578-4.835,3.128c-1.825,1.786-3.879,3.797-7.118,4.645
				c-10.16,2.48-24.311,8.242-23.975,13.313c0.344,5.239,20.639,13.517,34.944,17.726l0.383,0.111l-0.895,3.146l-0.39-0.111
				c-0.54-0.143-12.898-3.529-19.179-3.529c-1.328,0-1.993,0.154-2.29,0.265c0.2,0.419,0.837,1.349,2.784,3.021
				c1.446,1.242,6.113,2.995,11.044,4.857c8.031,3.031,17.078,6.442,20.142,10.357l0.608,0.773l-0.344,1.081
				c-0.208,0.429-0.691,1.067-1.814,1.067c-1.199,0-3.801-0.719-8.682-2.086l-0.132-0.039c-4.925-1.381-10.941-3.071-14.111-3.368
				c3.565,4.438,14.094,13.202,19.426,17.418l0.333,0.354l2.831,4.531l-0.741,0.905c-1.328,1.632,6.664,12.061,10.218,15.092
				l6.446,5.501l-7.648-2.573c0.004,0.115,0.011,0.229,0.021,0.322c0.018,0.251,0.036,0.508,0.039,0.752
				c3.242,2.945,4.624,6.148,5.948,9.248c0.948,2.187,1.807,4.18,3.253,6.134c3.658,4.914,10.436,6.882,17.612,8.965
				c3.69,1.074,7.859,2.28,11.692,4.026l0.064-0.58l0.408,0.047c0.429,0.047,0.877,0.072,1.331,0.072
				c10.411-0.007,24.673-11.792,30.309-20.242c7.777-12.157,4.119-22.4-0.125-34.271c-0.802-2.222-1.707-4.746-2.534-7.337
				l-0.118-0.383l3.117-0.998l0.125,0.39c0.791,2.48,1.657,4.896,2.491,7.222c4.345,12.154,8.446,23.635-0.222,37.166
				c-6.174,9.266-19.533,19.809-30.18,21.477c5.35,3.504,8.815,8.26,10.586,14.512c0.429,2.226,1.181,3.983,1.979,5.844
				c1.424,3.307,2.885,6.717,2.419,12.107l-0.047,0.573l-0.401,0.419c-0.54,0.551-1.26,0.988-2.104,1.346
				c1.585-0.254,3.149-0.426,4.635-0.426c2.759,0,4.971,0.591,6.771,1.807l1.199,0.82l-0.673,1.288
				c-0.49,0.945-1.117,1.643-1.714,2.319c-0.136,0.15-0.268,0.297-0.387,0.437c0.716-0.215,1.424-0.558,2.215-0.93
				c1.485-0.712,3.167-1.517,5.297-1.614C129.489,193.42,129.754,193.409,130.004,193.409z"/>
		</g>
		<g>
			<path style="fill:#010002;" d="M179.672,29.122c-2.434,0-4.42,1.976-4.42,4.413c0,2.434,1.99,4.413,4.42,4.413
				c2.437,0,4.413-1.979,4.413-4.413C184.088,31.094,182.109,29.122,179.672,29.122z M179.672,35.492
				c-1.081,0-1.965-0.884-1.965-1.958c0-1.077,0.884-1.958,1.965-1.958c1.081,0,1.954,0.88,1.954,1.958
				C181.626,34.608,180.752,35.492,179.672,35.492z"/>
			<path style="fill:#010002;" d="M179.672,38.359c-2.663,0-4.824-2.165-4.824-4.824c0-2.663,2.162-4.821,4.824-4.821
				c2.659,0,4.824,2.158,4.824,4.821C184.496,36.194,182.334,38.359,179.672,38.359z M179.672,29.526
				c-2.208,0-4.012,1.797-4.012,4.008s1.804,4.008,4.012,4.008c2.205,0,4.008-1.797,4.008-4.008S181.88,29.526,179.672,29.526z
				 M179.672,35.9c-1.306,0-2.366-1.063-2.366-2.366c0-1.303,1.059-2.366,2.366-2.366c1.303,0,2.358,1.059,2.358,2.366
				C182.03,34.841,180.978,35.9,179.672,35.9z M179.672,31.985c-0.855,0-1.557,0.694-1.557,1.55c0,0.848,0.698,1.55,1.557,1.55
				c0.848,0,1.553-0.701,1.553-1.55C181.225,32.679,180.523,31.985,179.672,31.985z"/>
		</g>
	</g>
</g>
<g>
</g>
<g>
</g>
<g>
</g>
<g>
</g>
<g>
</g>
<g>
</g>
<g>
</g>
<g>
</g>
<g>
</g>
<g>
</g>
<g>
</g>
<g>
</g>
<g>
</g>
<g>
</g>
<g>
</g>
</svg>
