<?xml version="1.0" encoding="UTF-8" standalone="no"?>
<!-- Created with Inkscape (http://www.inkscape.org/) -->

<svg
   xmlns:dc="http://purl.org/dc/elements/1.1/"
   xmlns:cc="http://creativecommons.org/ns#"
   xmlns:rdf="http://www.w3.org/1999/02/22-rdf-syntax-ns#"
   xmlns:svg="http://www.w3.org/2000/svg"
   xmlns="http://www.w3.org/2000/svg"
   xmlns:sodipodi="http://sodipodi.sourceforge.net/DTD/sodipodi-0.dtd"
   xmlns:inkscape="http://www.inkscape.org/namespaces/inkscape"
   version="1.1"
   id="svg2"
   xml:space="preserve"
   width="768"
   height="720"
   viewBox="0 0 768 720"
   sodipodi:docname="Ozone_wind.svg"
   inkscape:version="0.92.4 5da689c313, 2019-01-14"><metadata
     id="metadata8"><rdf:RDF><cc:Work
         rdf:about=""><dc:format>image/svg+xml</dc:format><dc:type
           rdf:resource="http://purl.org/dc/dcmitype/StillImage" /><dc:title></dc:title></cc:Work></rdf:RDF></metadata><defs
     id="defs6"><clipPath
       clipPathUnits="userSpaceOnUse"
       id="clipPath26"><path
         d="m 384.262,330 h 4665.74 V 5345.2 H 384.262 Z"
         id="path24"
         inkscape:connector-curvature="0" /></clipPath><clipPath
       clipPathUnits="userSpaceOnUse"
       id="clipPath36"><path
         d="m 384.262,1280 h 4665.74 v 10 H 384.262 Z"
         id="path34"
         inkscape:connector-curvature="0" /></clipPath><clipPath
       clipPathUnits="userSpaceOnUse"
       id="clipPath46"><path
         d="m 384.262,3020 h 4665.74 v 20 H 384.262 Z"
         id="path44"
         inkscape:connector-curvature="0" /></clipPath><clipPath
       clipPathUnits="userSpaceOnUse"
       id="clipPath56"><path
         d="m 384.262,4760 h 4665.74 v 20 H 384.262 Z"
         id="path54"
         inkscape:connector-curvature="0" /></clipPath><clipPath
       clipPathUnits="userSpaceOnUse"
       id="clipPath66"><path
         d="m 1150,330 h 20 v 5015.2 h -20 z"
         id="path64"
         inkscape:connector-curvature="0" /></clipPath><clipPath
       clipPathUnits="userSpaceOnUse"
       id="clipPath76"><path
         d="m 2570,330 h 10 v 5015.2 h -10 z"
         id="path74"
         inkscape:connector-curvature="0" /></clipPath><clipPath
       clipPathUnits="userSpaceOnUse"
       id="clipPath86"><path
         d="m 3980,330 h 10 v 5015.2 h -10 z"
         id="path84"
         inkscape:connector-curvature="0" /></clipPath><clipPath
       clipPathUnits="userSpaceOnUse"
       id="clipPath96"><path
         d="m 384.262,410 h 4665.74 v 20 H 384.262 Z"
         id="path94"
         inkscape:connector-curvature="0" /></clipPath><clipPath
       clipPathUnits="userSpaceOnUse"
       id="clipPath106"><path
         d="m 384.262,2150 h 4665.74 v 20 H 384.262 Z"
         id="path104"
         inkscape:connector-curvature="0" /></clipPath><clipPath
       clipPathUnits="userSpaceOnUse"
       id="clipPath116"><path
         d="m 384.262,3890 h 4665.74 v 20 H 384.262 Z"
         id="path114"
         inkscape:connector-curvature="0" /></clipPath><clipPath
       clipPathUnits="userSpaceOnUse"
       id="clipPath126"><path
         d="m 440,330 h 30 v 5015.2 h -30 z"
         id="path124"
         inkscape:connector-curvature="0" /></clipPath><clipPath
       clipPathUnits="userSpaceOnUse"
       id="clipPath136"><path
         d="m 1860,330 h 20 v 5015.2 h -20 z"
         id="path134"
         inkscape:connector-curvature="0" /></clipPath><clipPath
       clipPathUnits="userSpaceOnUse"
       id="clipPath146"><path
         d="m 3270,330 h 20 v 5015.2 h -20 z"
         id="path144"
         inkscape:connector-curvature="0" /></clipPath><clipPath
       clipPathUnits="userSpaceOnUse"
       id="clipPath156"><path
         d="m 4680,330 h 20 v 5015.2 h -20 z"
         id="path154"
         inkscape:connector-curvature="0" /></clipPath><inkscape:perspective
       id="perspective36"
       inkscape:persp3d-origin="42.568501 : 12.543667 : 1"
       inkscape:vp_z="85.137001 : 18.8155 : 1"
       inkscape:vp_y="0 : 1000 : 0"
       inkscape:vp_x="0 : 18.8155 : 1"
       sodipodi:type="inkscape:persp3d" /></defs><sodipodi:namedview
     pagecolor="#ffffff"
     bordercolor="#666666"
     borderopacity="1"
     objecttolerance="10"
     gridtolerance="10"
     guidetolerance="10"
     inkscape:pageopacity="0"
     inkscape:pageshadow="2"
     inkscape:window-width="1920"
     inkscape:window-height="971"
     id="namedview4"
     showgrid="false"
     inkscape:zoom="0.92709556"
     inkscape:cx="305.15832"
     inkscape:cy="334.01565"
     inkscape:window-x="0"
     inkscape:window-y="31"
     inkscape:window-maximized="1"
     inkscape:current-layer="g12" /><g
     id="g10"
     inkscape:groupmode="layer"
     inkscape:label="ink_ext_XXXXXX"
     transform="matrix(1.3333333,0,0,-1.3333333,0,720)"><g
       id="g12"
       transform="scale(0.1)"><path
         d="m 4489.8286,-3025.5782 h 5760.0004 v 5400 H 4489.8286 Z"
         style="fill:#ffffff;fill-opacity:1;fill-rule:nonzero;stroke:none"
         id="path14"
         inkscape:connector-curvature="0" /><path
         d="m 291.7373,-154.44916 h 5760 V 5245.5508 h -5760 z"
         style="fill:#ffffff;fill-opacity:1;fill-rule:nonzero;stroke:none"
         id="path16"
         inkscape:connector-curvature="0" /><path
         d="M 5045.3391,-560.59323 H 10805.339 V 4839.4068 H 5045.3391 Z"
         style="fill:none;stroke:#ffffff;stroke-width:10.6697998;stroke-linecap:round;stroke-linejoin:round;stroke-miterlimit:10;stroke-dasharray:none;stroke-opacity:1"
         id="path18"
         inkscape:connector-curvature="0" /><g
         id="g20"
         transform="matrix(1,0,0,0.89681435,0,5.9013316)"><g
           id="g22"
           clip-path="url(#clipPath26)"><path
             d="m 384.262,330.512 h 4661.99 v 5014.69 H 384.262 Z"
             style="fill:#ebebeb;fill-opacity:1;fill-rule:nonzero;stroke:none"
             id="path28"
             inkscape:connector-curvature="0" /></g></g><g
         id="g30"
         transform="matrix(1,0,0,0.89681435,0,5.9013316)"><g
           id="g32"
           clip-path="url(#clipPath36)"><path
             d="M 384.262,1286.33 H 5046.25"
             style="fill:none;stroke:#ffffff;stroke-width:5.33488989;stroke-linecap:butt;stroke-linejoin:round;stroke-miterlimit:10;stroke-dasharray:none;stroke-opacity:1"
             id="path38"
             inkscape:connector-curvature="0" /></g></g><g
         id="g40"
         transform="matrix(1,0,0,0.89681435,0,5.9013316)"><g
           id="g42"
           clip-path="url(#clipPath46)"><path
             d="M 384.262,3027.66 H 5046.25"
             style="fill:none;stroke:#ffffff;stroke-width:5.33488989;stroke-linecap:butt;stroke-linejoin:round;stroke-miterlimit:10;stroke-dasharray:none;stroke-opacity:1"
             id="path48"
             inkscape:connector-curvature="0" /></g></g><g
         id="g50"
         transform="matrix(1,0,0,0.89681435,0,5.9013316)"><g
           id="g52"
           clip-path="url(#clipPath56)"><path
             d="M 384.262,4768.98 H 5046.25"
             style="fill:none;stroke:#ffffff;stroke-width:5.33488989;stroke-linecap:butt;stroke-linejoin:round;stroke-miterlimit:10;stroke-dasharray:none;stroke-opacity:1"
             id="path58"
             inkscape:connector-curvature="0" /></g></g><g
         id="g60"
         transform="matrix(1,0,0,0.89681435,0,5.9013316)"><g
           id="g62"
           clip-path="url(#clipPath66)"><path
             d="M 1161.25,330.512 V 5345.2"
             style="fill:none;stroke:#ffffff;stroke-width:5.33488989;stroke-linecap:butt;stroke-linejoin:round;stroke-miterlimit:10;stroke-dasharray:none;stroke-opacity:1"
             id="path68"
             inkscape:connector-curvature="0" /></g></g><g
         id="g70"
         transform="matrix(1,0,0,0.89681435,0,5.9013316)"><g
           id="g72"
           clip-path="url(#clipPath76)"><path
             d="M 2573.98,330.512 V 5345.2"
             style="fill:none;stroke:#ffffff;stroke-width:5.33488989;stroke-linecap:butt;stroke-linejoin:round;stroke-miterlimit:10;stroke-dasharray:none;stroke-opacity:1"
             id="path78"
             inkscape:connector-curvature="0" /></g></g><g
         id="g80"
         transform="matrix(1,0,0,0.89681435,0,5.9013316)"><g
           id="g82"
           clip-path="url(#clipPath86)"><path
             d="M 3986.72,330.512 V 5345.2"
             style="fill:none;stroke:#ffffff;stroke-width:5.33488989;stroke-linecap:butt;stroke-linejoin:round;stroke-miterlimit:10;stroke-dasharray:none;stroke-opacity:1"
             id="path88"
             inkscape:connector-curvature="0" /></g></g><g
         id="g90"
         transform="matrix(1,0,0,0.89681435,0,5.9013316)"><g
           id="g92"
           clip-path="url(#clipPath96)"><path
             d="M 384.262,415.66 H 5046.25"
             style="fill:none;stroke:#ffffff;stroke-width:10.6697998;stroke-linecap:butt;stroke-linejoin:round;stroke-miterlimit:10;stroke-dasharray:none;stroke-opacity:1"
             id="path98"
             inkscape:connector-curvature="0" /></g></g><g
         id="g100"
         transform="matrix(1,0,0,0.89681435,0,5.9013316)"><g
           id="g102"
           clip-path="url(#clipPath106)"><path
             d="M 384.262,2156.99 H 5046.25"
             style="fill:none;stroke:#ffffff;stroke-width:10.6697998;stroke-linecap:butt;stroke-linejoin:round;stroke-miterlimit:10;stroke-dasharray:none;stroke-opacity:1"
             id="path108"
             inkscape:connector-curvature="0" /></g></g><g
         id="g110"
         transform="matrix(1,0,0,0.89681435,0,5.9013316)"><g
           id="g112"
           clip-path="url(#clipPath116)"><path
             d="M 384.262,3898.32 H 5046.25"
             style="fill:none;stroke:#ffffff;stroke-width:10.6697998;stroke-linecap:butt;stroke-linejoin:round;stroke-miterlimit:10;stroke-dasharray:none;stroke-opacity:1"
             id="path118"
             inkscape:connector-curvature="0" /></g></g><g
         id="g120"
         transform="matrix(1,0,0,0.89681435,0,5.9013316)"><g
           id="g122"
           clip-path="url(#clipPath126)"><path
             d="M 454.922,330.512 V 5345.2"
             style="fill:none;stroke:#ffffff;stroke-width:10.6697998;stroke-linecap:butt;stroke-linejoin:round;stroke-miterlimit:10;stroke-dasharray:none;stroke-opacity:1"
             id="path128"
             inkscape:connector-curvature="0" /></g></g><g
         id="g130"
         transform="matrix(1,0,0,0.89681435,0,5.9013316)"><g
           id="g132"
           clip-path="url(#clipPath136)"><path
             d="M 1867.62,330.512 V 5345.2"
             style="fill:none;stroke:#ffffff;stroke-width:10.6697998;stroke-linecap:butt;stroke-linejoin:round;stroke-miterlimit:10;stroke-dasharray:none;stroke-opacity:1"
             id="path138"
             inkscape:connector-curvature="0" /></g></g><g
         id="g140"
         transform="matrix(1,0,0,0.89681435,0,5.9013316)"><g
           id="g142"
           clip-path="url(#clipPath146)"><path
             d="M 3280.35,330.512 V 5345.2"
             style="fill:none;stroke:#ffffff;stroke-width:10.6697998;stroke-linecap:butt;stroke-linejoin:round;stroke-miterlimit:10;stroke-dasharray:none;stroke-opacity:1"
             id="path148"
             inkscape:connector-curvature="0" /></g></g><g
         id="g150"
         transform="matrix(1,0,0,0.89681435,0,5.9013316)"><g
           id="g152"
           clip-path="url(#clipPath156)"><path
             d="M 4693.09,330.512 V 5345.2"
             style="fill:none;stroke:#ffffff;stroke-width:10.6697998;stroke-linecap:butt;stroke-linejoin:round;stroke-miterlimit:10;stroke-dasharray:none;stroke-opacity:1"
             id="path158"
             inkscape:connector-curvature="0" /></g></g><path
         d="m 596.172,506.71924 141.289,159.28319 h 141.25 l 282.539,-143.66248 141.29,196.77093 141.29,-181.14663 141.25,37.48774 141.29,-18.74522 141.25,53.07258 282.54,215.51615 141.29,18.74162 282.53,-18.74162 141.29,-231.10189 141.25,106.18192 141.29,-124.92354 141.25,-37.48774 141.29,199.89185 141.29,-143.66249 423.79,53.07347 141.29,-18.74162 141.25,18.74162 141.29,106.20973 141.29,-143.69746 h 282.54 l 141.25,56.22308"
         style="fill:none;stroke:#00bfc4;stroke-width:10.10433102;stroke-linecap:butt;stroke-linejoin:round;stroke-miterlimit:10;stroke-dasharray:none;stroke-opacity:1"
         id="path160"
         inkscape:connector-curvature="0" /><path
         d="m 596.172,4595.1425 141.289,-2686.0307 141.25,-530.9769 282.539,999.4548 141.29,-749.6113 141.29,1155.626 141.25,624.694 h 141.29 l 141.25,-374.8056 282.54,-2342.47104 141.29,530.94194 282.53,-624.65904 141.29,1280.55314 141.25,-406.0148 141.29,812.0385 141.25,562.186 141.29,-499.7228 141.29,-1467.94075 423.79,1998.91755 141.29,874.5285 141.25,-2748.5207 141.29,999.4547 141.29,937.0006 141.25,-999.4637 141.29,437.2688 141.25,-156.1713"
         style="fill:none;stroke:#f8766d;stroke-width:10.10433102;stroke-linecap:butt;stroke-linejoin:round;stroke-miterlimit:10;stroke-dasharray:none;stroke-opacity:1"
         id="path162"
         inkscape:connector-curvature="0" /><path
         d="m 330.82,378.74472 v -1.32728 l -0.039,-1.33805 -0.043,-1.28962 -0.078,-1.2645 -0.23,-2.4492 -0.16,-1.19456 -0.149,-1.12102 -0.391,-2.24204 -0.242,-1.04747 -0.539,-2.03488 -0.32,-0.94255 -0.348,-0.95242 -0.351,-0.86901 -0.391,-0.87977 -0.43,-0.84032 -0.429,-0.77395 -0.508,-0.77126 -0.473,-0.73539 -0.539,-0.69682 -0.551,-0.66633 -0.589,-0.62688 -0.579,-0.56409 -0.671,-0.55693 -0.661,-0.52912 -0.66,-0.49324 -1.488,-0.83404 -0.781,-0.38563 -0.821,-0.32196 -0.859,-0.31568 -0.859,-0.24124 -0.903,-0.20716 -0.968,-0.17847 -0.981,-0.14349 -1.019,-0.0987 -1.008,-0.0735 h -2.071 l -0.98,0.0735 -0.981,0.0987 -0.89,0.14349 -0.899,0.17847 -0.902,0.20716 -0.82,0.24124 -1.641,0.63764 -0.738,0.38563 -0.75,0.41343 -0.699,0.42061 -0.7,0.49324 -0.671,0.52912 -1.25,1.12102 -0.579,0.62688 -0.55,0.66633 -0.551,0.69682 -0.5,0.73539 -0.942,1.54521 -0.429,0.84032 -0.778,1.74878 -0.711,1.89497 -0.269,1.01251 -0.313,1.02237 -0.238,1.04747 -0.461,2.24204 -0.16,1.12102 -0.16,1.19456 -0.149,1.21966 -0.082,1.22954 -0.078,1.2645 -0.082,1.28962 -0.039,1.33805 v 2.69762 l 0.082,2.59179 0.078,1.25464 0.121,1.26451 0.231,2.37835 0.16,1.156 0.188,1.12102 0.203,1.09321 0.226,1.05107 0.551,2.02501 0.313,0.95241 0.347,0.94255 0.352,0.87529 0.398,0.87978 0.391,0.79906 0.461,0.80893 0.429,0.73539 0.508,0.73269 0.512,0.70041 0.551,0.67262 0.578,0.62687 1.25,1.12102 0.672,0.52912 0.66,0.48697 1.488,0.84031 0.781,0.38563 1.641,0.63046 0.899,0.24932 0.89,0.20626 0.942,0.17847 0.976,0.13721 0.973,0.10493 1.058,0.0735 h 2.071 l 0.98,-0.0735 0.969,-0.10493 0.941,-0.13721 0.899,-0.17847 0.859,-0.20626 0.863,-0.24932 0.821,-0.31478 0.777,-0.31568 0.781,-0.38563 0.739,-0.38473 1.41,-0.91475 0.66,-0.51836 0.672,-0.56768 0.578,-0.55334 0.59,-0.63046 0.582,-0.67261 0.508,-0.69682 0.55,-0.73629 0.469,-0.73539 0.473,-0.80892 0.429,-0.80624 0.782,-1.74789 0.386,-0.94255 0.313,-0.94883 0.309,-0.97753 0.32,-1.05107 0.23,-1.05824 0.231,-1.08604 0.238,-1.12102 0.191,-1.15599 0.161,-1.1838 0.23,-2.45547 0.078,-1.25823 0.082,-1.29949 0.039,-1.32728 z m -32.191,0 v -1.12101 l 0.043,-1.12102 0.039,-1.08604 0.039,-1.05107 0.039,-1.0125 0.082,-1.02237 0.078,-0.94255 0.11,-0.94973 0.121,-0.90668 0.121,-0.87619 0.109,-0.8439 0.16,-0.83404 0.16,-0.77036 0.192,-0.77485 0.199,-0.7318 0.469,-1.40082 0.461,-1.26541 0.32,-0.59189 0.27,-0.5641 0.308,-0.52912 0.321,-0.48338 0.351,-0.49325 0.348,-0.42061 0.39,-0.42419 0.391,-0.38473 0.43,-0.38563 0.859,-0.62688 0.473,-0.27711 0.508,-0.25201 0.5,-0.20716 1.101,-0.34976 1.168,-0.20716 0.59,-0.07 0.66,-0.035 0.621,-0.0386 0.668,0.0386 0.621,0.035 0.629,0.07 1.172,0.20716 0.551,0.17129 0.5,0.17847 0.551,0.20716 0.468,0.25201 0.469,0.27711 0.473,0.31478 0.429,0.3121 0.43,0.34975 0.391,0.38563 0.777,0.8448 0.352,0.48966 0.308,0.49415 0.321,0.52194 0.308,0.5641 0.313,0.5919 0.269,0.59189 0.469,1.33536 0.242,0.70041 0.188,0.73539 0.39,1.54162 0.16,0.80893 0.121,0.86901 0.149,0.87978 0.082,0.91385 0.117,0.94255 0.152,1.96134 0.079,1.05106 0.043,1.05107 0.039,1.08246 0.039,1.12101 v 2.31558 l -0.078,2.1685 -0.043,1.05106 -0.079,1.05824 -0.152,1.95416 -0.117,0.91475 -0.082,0.91475 -0.149,0.87171 -0.121,0.87618 -0.16,0.80893 -0.39,1.54162 -0.188,0.73539 -0.242,0.70041 -0.469,1.32819 -0.269,0.59907 -0.313,0.5919 -0.308,0.55692 -0.321,0.52912 -0.308,0.49414 -0.352,0.48339 -0.777,0.8439 -0.391,0.38563 -0.43,0.34706 -0.429,0.31479 -0.473,0.32285 -0.469,0.27981 -0.468,0.24214 -0.551,0.21344 -0.5,0.17129 -0.551,0.17847 -1.172,0.20716 -0.629,0.07 -0.621,0.0386 -0.668,0.035 -0.621,-0.035 -0.66,-0.0386 -0.59,-0.07 -1.168,-0.20716 -1.101,-0.34976 -0.5,-0.21344 -0.508,-0.24214 -0.473,-0.27981 -0.859,-0.63764 -0.43,-0.34706 -0.391,-0.38563 -0.39,-0.4233 -0.348,-0.4206 -0.351,-0.48339 -0.321,-0.49414 -0.308,-0.52912 -0.27,-0.55692 -0.32,-0.5919 -0.231,-0.59907 -0.468,-1.32819 -0.231,-0.70041 -0.199,-0.73539 -0.192,-0.77126 -0.16,-0.77036 -0.16,-0.80893 -0.23,-1.74789 -0.231,-1.8295 -0.16,-1.95416 -0.078,-2.1093 -0.082,-2.1685 z"
         style="fill:#4d4d4d;fill-opacity:1;fill-rule:evenodd;stroke:none;stroke-width:0.94700283"
         id="path164"
         inkscape:connector-curvature="0" /><path
         d="m 261.449,1946.7331 0.821,-0.036 0.851,-0.036 0.828,-0.036 0.781,-0.063 0.821,-0.1077 0.777,-0.1076 0.781,-0.1435 1.481,-0.3497 1.488,-0.4126 0.703,-0.2511 0.699,-0.278 0.668,-0.278 0.622,-0.287 0.628,-0.3139 0.622,-0.3497 1.179,-0.7713 0.539,-0.3856 0.551,-0.4215 0.512,-0.4484 0.469,-0.4574 0.46,-0.4932 0.469,-0.5202 0.781,-1.0582 0.399,-0.5919 0.351,-0.5561 0.309,-0.6367 0.27,-0.5919 0.281,-0.6636 0.23,-0.6726 0.2,-0.6637 0.191,-0.6995 0.238,-1.4708 0.071,-0.7712 0.039,-0.7713 0.043,-0.8071 -0.043,-0.8699 -0.039,-0.8431 -0.071,-0.843 -0.078,-0.8071 -0.16,-0.8071 -0.16,-0.7713 -0.391,-1.5335 -0.269,-0.7085 -0.27,-0.7354 -0.633,-1.3273 -0.386,-0.6636 -0.391,-0.6368 -0.391,-0.5919 -0.468,-0.5919 -0.473,-0.565 -0.5,-0.5201 -0.551,-0.5291 -0.547,-0.4933 -0.582,-0.4843 -0.629,-0.4215 -0.621,-0.4573 -0.711,-0.3857 -0.66,-0.3856 -0.738,-0.3856 -0.75,-0.3139 -0.781,-0.3139 -0.821,-0.3139 -0.859,-0.287 -0.82,-0.2421 -0.899,-0.2152 -0.89,-0.1704 -0.942,-0.1794 -0.976,-0.1345 -0.981,-0.1076 -1.012,-0.1077 -1.019,-0.063 -1.051,-0.036 h -2.418 l -0.43,0.036 h -0.429 l -0.864,0.063 h -0.429 l -0.86,0.072 -0.429,0.072 -0.43,0.036 -0.391,0.036 -0.429,0.072 -0.391,0.036 -0.43,0.063 -0.781,0.1435 -0.43,0.072 -0.777,0.1345 -0.351,0.072 -0.391,0.1076 -0.399,0.072 -0.351,0.099 -0.391,0.072 -1.398,0.4215 -0.36,0.1435 -0.351,0.1076 -0.348,0.1346 -0.312,0.1076 -1.25,0.556 -0.27,0.1794 -0.32,0.1345 v 6.6275 l 0.32,-0.1794 0.27,-0.1704 0.312,-0.1794 0.309,-0.1345 0.359,-0.1794 0.313,-0.1434 0.347,-0.1704 0.7,-0.2781 1.171,-0.4215 0.391,-0.1076 0.399,-0.1435 0.429,-0.099 0.391,-0.1076 0.39,-0.1435 0.43,-0.063 0.43,-0.1076 0.39,-0.1076 0.43,-0.1076 0.86,-0.1346 0.39,-0.1076 1.719,-0.278 0.391,-0.036 0.429,-0.072 0.852,-0.072 0.398,-0.036 0.43,-0.036 0.391,-0.027 h 0.39 l 0.391,-0.036 h 0.738 l 0.352,-0.036 0.699,0.036 h 0.629 l 0.66,0.036 0.633,0.063 0.617,0.036 0.59,0.1077 0.582,0.072 0.551,0.1076 0.589,0.1345 0.508,0.1077 0.539,0.1704 0.512,0.1793 0.469,0.1704 0.511,0.2152 0.43,0.2063 0.461,0.2152 0.43,0.2422 1.179,0.843 0.7,0.6278 0.941,1.0492 0.27,0.3857 0.238,0.4215 0.269,0.4215 0.192,0.4215 0.238,0.4573 0.152,0.4574 0.2,0.4843 0.121,0.4933 0.148,0.5201 0.121,0.5291 0.078,0.5291 0.082,0.5919 0.04,0.565 0.031,0.5919 v 0.6278 l -0.031,1.0851 -0.122,1.0224 -0.199,0.9775 -0.269,0.9148 -0.309,0.834 -0.43,0.843 -0.511,0.7354 -0.551,0.7354 -0.66,0.6278 -0.699,0.6367 -0.79,0.556 -0.859,0.4933 -0.93,0.4215 -0.98,0.3856 -1.09,0.3139 -1.141,0.278 -1.21,0.2153 -1.25,0.1345 -1.321,0.072 -1.449,0.036 h -0.941 l -0.27,-0.036 h -0.508 l -0.269,-0.036 h -0.242 l -0.27,-0.036 h -0.27 l -0.55,-0.072 h -0.27 l -0.281,-0.027 h -0.27 l -1.371,-0.1793 h -0.226 l -0.551,-0.072 -0.231,-0.036 -0.281,-0.036 -0.23,-0.027 -0.27,-0.036 -0.238,-0.036 -0.27,-0.072 h -0.242 l -0.469,-0.072 -0.191,-0.036 -0.238,-0.036 -0.582,-0.099 h -0.199 l -0.192,-0.036 -3.867,2.1703 2.379,26.5188 h 29.648 v -6.3764 h -22.847 l -1.68,-16.1516 0.269,0.036 0.321,0.036 0.308,0.072 0.313,0.036 0.348,0.063 0.781,0.072 0.398,0.072 0.422,0.036 0.43,0.072 0.469,0.036 0.468,0.072 1.024,0.063 0.539,0.036 h 0.551 l 0.546,0.036 h 0.582 l 0.59,0.036 z"
         style="fill:#4d4d4d;fill-opacity:1;fill-rule:evenodd;stroke:none;stroke-width:0.94700283"
         id="path166"
         inkscape:connector-curvature="0" /><path
         d="m 330.82,1940.3927 v -1.3273 l -0.039,-1.3363 -0.043,-1.2914 -0.078,-1.2645 -0.23,-2.4483 -0.309,-2.3138 -0.199,-1.121 -0.192,-1.0851 -0.242,-1.0852 -0.539,-2.0358 -0.32,-0.9416 -0.348,-0.9506 -0.351,-0.8789 -0.391,-0.8699 -0.43,-0.843 -0.429,-0.7713 -0.508,-0.7712 -0.473,-0.7354 -0.539,-0.6995 -0.551,-0.6637 -1.168,-1.1928 -0.671,-0.5649 -0.661,-0.5202 -0.66,-0.4574 -0.75,-0.4573 -0.738,-0.4216 -0.781,-0.3856 -0.821,-0.3139 -0.859,-0.3139 -0.859,-0.2421 -0.903,-0.2152 -0.968,-0.1704 -0.981,-0.1435 -1.019,-0.1076 -1.008,-0.027 -1.102,-0.036 -1.949,0.063 -0.981,0.1076 -0.89,0.1435 -0.899,0.1704 -0.902,0.2152 -0.82,0.2421 -1.641,0.6278 -0.738,0.3856 -0.75,0.4216 -1.399,0.9147 -0.671,0.5202 -0.622,0.5649 -0.628,0.5919 -0.579,0.6009 -0.55,0.6637 -0.551,0.6995 -0.5,0.7354 -0.942,1.5425 -0.429,0.843 -0.778,1.7488 -0.711,1.8922 -0.269,1.0134 -0.313,1.0224 -0.468,2.1703 -0.231,1.121 -0.32,2.3138 -0.149,1.2197 -0.082,1.2286 -0.078,1.2645 -0.082,1.2914 -0.039,1.3363 v 2.6904 l 0.039,1.3363 0.043,1.2555 0.078,1.3004 0.121,1.2286 0.231,2.3766 0.16,1.1569 0.188,1.121 0.203,1.0851 0.226,1.0583 0.282,1.0493 0.269,0.9775 0.313,0.9506 0.347,0.9417 0.352,0.8788 0.398,0.87 0.391,0.8071 0.461,0.8071 0.429,0.7713 1.02,1.399 0.551,0.6637 0.578,0.6367 0.633,0.5919 0.617,0.5291 0.672,0.5202 0.66,0.4932 0.738,0.4574 0.75,0.3856 0.781,0.3856 0.821,0.3498 0.82,0.278 0.899,0.2422 0.89,0.2152 0.942,0.1704 0.976,0.1435 0.973,0.1076 1.058,0.072 h 2.071 l 0.98,-0.072 0.969,-0.1076 0.941,-0.1435 0.899,-0.1704 0.859,-0.2152 0.863,-0.2422 0.821,-0.278 0.777,-0.3498 0.781,-0.3856 0.739,-0.3856 1.41,-0.9148 0.66,-0.5201 0.672,-0.565 0.578,-0.556 0.59,-0.6368 0.582,-0.6636 0.508,-0.6995 0.55,-0.6995 0.469,-0.7713 0.473,-0.8071 0.429,-0.8072 0.782,-1.7488 0.386,-0.9147 0.622,-1.9551 0.32,-1.0582 0.23,-1.0493 0.231,-1.0851 0.238,-1.121 0.191,-1.1569 0.161,-1.1928 0.121,-1.1838 0.109,-1.2645 0.078,-1.2645 0.082,-1.2914 0.039,-1.3363 z m -32.191,0 v -1.121 l 0.043,-1.1211 0.039,-1.0851 0.039,-1.0493 0.039,-1.0224 0.082,-1.0134 0.078,-0.9416 0.11,-0.9506 0.121,-0.9058 0.121,-0.8789 0.109,-0.843 0.16,-0.834 0.16,-0.7713 0.192,-0.7713 0.199,-0.7353 0.231,-0.7085 0.468,-1.3273 0.231,-0.6278 0.32,-0.6008 0.27,-0.5561 0.308,-0.5291 0.321,-0.4843 0.699,-0.9147 0.39,-0.4215 0.391,-0.3857 0.43,-0.3856 0.859,-0.6278 0.473,-0.278 0.508,-0.2152 0.5,-0.2421 0.55,-0.1794 0.551,-0.1345 0.578,-0.1435 0.59,-0.1076 0.59,-0.063 0.66,-0.036 0.621,-0.036 0.668,0.036 0.621,0.036 0.629,0.063 0.582,0.1076 0.59,0.1435 0.551,0.1345 0.5,0.1794 1.019,0.4573 0.469,0.278 0.473,0.3139 0.429,0.3139 0.43,0.3498 0.391,0.3856 0.386,0.4215 0.391,0.4574 0.352,0.4574 0.308,0.4842 0.321,0.5292 0.308,0.556 0.313,0.6008 0.269,0.6278 0.238,0.6278 0.231,0.6726 0.242,0.6995 0.188,0.7354 0.39,1.5425 0.16,0.8341 0.121,0.843 0.149,0.8788 0.082,0.9058 0.117,0.9506 0.082,0.9776 0.149,2.0357 0.043,1.0493 0.039,1.121 0.039,1.0852 v 2.3138 l -0.039,1.121 -0.039,1.0851 -0.043,1.0493 -0.079,1.0134 -0.152,1.964 -0.117,0.9506 -0.082,0.87 -0.149,0.8788 -0.121,0.8789 -0.16,0.8071 -0.187,0.7982 -0.391,1.4708 -0.242,0.7085 -0.469,1.3273 -0.269,0.5918 -0.313,0.6009 -0.308,0.556 -0.321,0.5292 -0.308,0.4932 -0.352,0.4843 -0.777,0.843 -0.391,0.3856 -0.859,0.6995 -0.942,0.565 -0.468,0.2422 -0.551,0.2062 -0.5,0.1794 -0.551,0.1704 -1.172,0.2152 -0.629,0.072 -0.621,0.036 -0.668,0.036 -0.621,-0.036 -0.66,-0.036 -0.59,-0.072 -1.168,-0.2152 -1.101,-0.3498 -0.5,-0.2062 -0.508,-0.2422 -0.473,-0.2869 -0.43,-0.2781 -0.859,-0.6995 -0.391,-0.3856 -0.39,-0.4215 -0.348,-0.4215 -0.351,-0.4843 -0.321,-0.4932 -0.308,-0.5292 -0.27,-0.556 -0.32,-0.6009 -0.231,-0.5918 -0.468,-1.3273 -0.231,-0.7085 -0.391,-1.4708 -0.32,-1.6053 -0.351,-2.6277 -0.11,-0.9506 -0.16,-1.964 -0.039,-1.0134 -0.039,-1.0493 -0.039,-1.0851 -0.043,-1.121 z"
         style="fill:#4d4d4d;fill-opacity:1;fill-rule:evenodd;stroke:none;stroke-width:0.94700283"
         id="path168"
         inkscape:connector-curvature="0" /><path
         d="m 220.078,3473.8017 h -7.539 v 39.4868 l 0.039,0.3856 v 1.5066 l 0.043,0.3498 v 1.121 l 0.039,0.3856 v 0.3498 l 0.039,0.3856 v 0.6995 l 0.031,0.3498 v 1.0493 l 0.04,0.3139 v 0.3497 l 0.039,0.3229 v 0.6277 l 0.043,0.3139 v 0.843 l 0.039,0.278 -0.313,-0.278 -0.117,-0.1435 -0.16,-0.1076 -0.11,-0.1345 -0.242,-0.2152 -0.109,-0.1346 -0.238,-0.2152 -0.122,-0.072 -0.46,-0.4126 -0.122,-0.072 -0.238,-0.2152 -0.109,-0.063 -0.242,-0.2153 -0.11,-0.072 -0.711,-0.6278 -0.148,-0.1076 -0.238,-0.2063 -0.153,-0.1076 -0.121,-0.1076 -0.308,-0.2063 -0.161,-0.1435 -0.16,-0.099 -0.148,-0.1435 -0.199,-0.1435 -0.153,-0.1345 -6.371,-4.6634 -4.137,4.7351 16.438,11.5241 h 6.449 z"
         style="fill:#4d4d4d;fill-opacity:1;fill-rule:evenodd;stroke:none;stroke-width:0.94700283"
         id="path170"
         inkscape:connector-curvature="0" /><path
         d="m 282.34,3502.0424 v -1.3362 l -0.039,-1.3273 -0.031,-1.3004 -0.079,-1.2556 -0.242,-2.4572 -0.308,-2.3048 -0.192,-1.1211 -0.199,-1.0941 -0.23,-1.0851 -0.282,-1.0134 -0.269,-0.9775 -0.309,-0.9865 -0.711,-1.8206 -0.39,-0.8699 -0.86,-1.6142 -0.469,-0.7713 -0.5,-0.7354 -0.55,-0.6995 -0.551,-0.6367 -0.578,-0.6278 -0.59,-0.5919 -0.621,-0.565 -0.668,-0.5202 -0.703,-0.4573 -0.739,-0.4574 -0.75,-0.4215 -0.781,-0.3498 -0.82,-0.3497 -0.82,-0.278 -0.899,-0.2781 -0.89,-0.2152 -0.942,-0.1704 -0.976,-0.1435 -1.012,-0.1076 -1.059,-0.036 -1.09,-0.036 -1.961,0.072 -0.929,0.1076 -0.942,0.1435 -0.898,0.1704 -0.859,0.2152 -0.864,0.2781 -0.816,0.278 -1.563,0.6995 -0.738,0.4215 -1.41,0.9147 -0.66,0.5202 -0.629,0.565 -0.582,0.5919 -1.18,1.2645 -0.539,0.6995 -0.512,0.7354 -0.468,0.7713 -0.86,1.6142 -0.429,0.8699 -0.391,0.9148 -0.352,0.9058 -0.629,1.964 -0.308,1.0134 -0.473,2.1792 -0.187,1.1211 -0.203,1.1479 -0.149,1.1569 -0.238,2.4572 -0.082,1.2556 -0.07,1.3004 -0.04,1.3273 v 2.6994 l 0.04,1.3362 0.031,1.2914 0.078,1.2645 0.121,1.2197 0.23,2.3855 0.2,1.1569 0.16,1.121 0.191,1.0852 0.239,1.0493 0.269,1.0582 0.27,0.9775 0.32,0.9776 0.699,1.8205 0.391,0.843 0.429,0.843 0.43,0.7713 0.473,0.7712 0.469,0.7354 1.089,1.3273 0.551,0.6367 0.621,0.5919 0.629,0.5561 0.66,0.4932 0.7,0.4933 0.71,0.4573 0.739,0.4126 0.781,0.3587 0.82,0.3497 0.821,0.2781 1.8,0.4932 0.93,0.1704 0.981,0.1435 2.027,0.1345 1.062,0.036 1.008,-0.036 1.961,-0.1345 0.93,-0.1435 0.898,-0.1704 1.723,-0.4932 0.82,-0.2781 1.559,-0.7084 0.75,-0.4126 0.738,-0.4573 0.66,-0.4574 1.332,-1.0493 0.59,-0.6009 0.621,-0.6277 1.098,-1.3273 0.5,-0.7354 0.941,-1.5425 0.86,-1.686 0.39,-0.9058 0.352,-0.9148 0.629,-1.964 0.308,-1.0134 0.231,-1.0851 0.281,-1.0852 0.188,-1.121 0.203,-1.1569 0.148,-1.1928 0.121,-1.1927 0.117,-1.2556 0.082,-1.2645 0.071,-1.2914 0.039,-1.3362 z m -32.18,0 0.039,-1.121 v -1.121 l 0.031,-1.0852 0.04,-1.0492 0.082,-1.0224 0.039,-0.9775 0.121,-0.9776 0.078,-0.9506 0.109,-0.9147 0.121,-0.87 0.121,-0.843 0.149,-0.8071 0.199,-0.8071 0.16,-0.7713 0.192,-0.7354 0.238,-0.6995 0.461,-1.3273 0.281,-0.6277 0.539,-1.1211 0.32,-0.5291 0.348,-0.5291 0.313,-0.4484 0.39,-0.4574 0.348,-0.4215 0.391,-0.3856 0.859,-0.6995 0.43,-0.3139 0.472,-0.2511 0.508,-0.2422 0.512,-0.2062 0.539,-0.2153 0.551,-0.1435 0.589,-0.1345 0.579,-0.1076 0.632,-0.072 0.618,-0.036 h 1.293 l 0.628,0.036 0.622,0.072 0.589,0.1076 0.579,0.1345 0.55,0.1435 0.551,0.2153 0.508,0.2062 0.461,0.2422 0.512,0.2511 0.859,0.6278 0.43,0.3497 0.429,0.3856 0.352,0.4215 0.387,0.4574 0.351,0.4484 0.36,0.5291 0.308,0.5292 0.274,0.5201 0.308,0.6009 0.281,0.6278 0.231,0.6277 0.277,0.6726 0.192,0.6996 0.23,0.7353 0.16,0.7713 0.199,0.7713 0.149,0.834 0.121,0.843 0.16,0.8789 0.11,0.9058 0.082,0.9506 0.117,0.9775 0.082,1.0134 0.039,1.0224 0.07,2.1703 0.039,1.121 v 2.2779 l -0.039,1.121 -0.031,1.0852 -0.039,1.0492 -0.039,1.0134 -0.082,0.9865 -0.117,0.9776 -0.082,0.9506 -0.11,0.9058 -0.16,0.8788 -0.121,0.8341 -0.149,0.8071 -0.199,0.8071 -0.16,0.7713 -0.23,0.6995 -0.192,0.6995 -0.277,0.6996 -0.231,0.6367 -0.281,0.6278 -0.308,0.565 -0.274,0.556 -0.308,0.5291 -0.711,0.9775 -0.387,0.4215 -0.352,0.4215 -0.429,0.3857 -0.86,0.6995 -0.429,0.278 -0.512,0.278 -0.461,0.2511 -0.508,0.2063 -1.101,0.3497 -0.579,0.1435 -0.589,0.072 -1.25,0.1345 h -1.293 l -1.25,-0.1345 -0.579,-0.072 -0.589,-0.1435 -1.09,-0.3497 -0.512,-0.2063 -0.508,-0.2511 -0.472,-0.278 -0.43,-0.278 -0.859,-0.6995 -0.391,-0.3857 -0.348,-0.4215 -0.39,-0.4215 -0.313,-0.4932 -0.348,-0.4843 -0.32,-0.5291 -0.539,-1.121 -0.281,-0.6278 -0.231,-0.6367 -0.468,-1.3991 -0.192,-0.6995 -0.16,-0.7713 -0.199,-0.8071 -0.149,-0.8071 -0.121,-0.8341 -0.121,-0.8788 -0.109,-0.9058 -0.078,-0.9506 -0.121,-0.9776 -0.039,-0.9865 -0.082,-1.0134 -0.04,-1.0492 -0.031,-1.0852 v -1.121 z"
         style="fill:#4d4d4d;fill-opacity:1;fill-rule:evenodd;stroke:none;stroke-width:0.94700283"
         id="path172"
         inkscape:connector-curvature="0" /><path
         d="m 330.82,3502.0424 v -1.3362 l -0.039,-1.3273 -0.043,-1.3004 -0.078,-1.2556 -0.23,-2.4572 -0.309,-2.3048 -0.199,-1.1211 -0.192,-1.0941 -0.242,-1.0851 -0.269,-1.0134 -0.27,-0.9775 -0.32,-0.9865 -0.699,-1.8206 -0.391,-0.8699 -0.859,-1.6142 -0.508,-0.7713 -0.473,-0.7354 -0.539,-0.6995 -0.551,-0.6367 -0.589,-0.6278 -0.579,-0.5919 -0.671,-0.565 -0.661,-0.5202 -0.66,-0.4573 -0.75,-0.4574 -0.738,-0.4215 -0.781,-0.3498 -0.821,-0.3497 -1.718,-0.5561 -0.903,-0.2152 -0.968,-0.1704 -0.981,-0.1435 -1.019,-0.1076 -1.008,-0.036 -1.102,-0.036 -1.949,0.072 -0.981,0.1076 -0.89,0.1435 -0.899,0.1704 -0.902,0.2152 -1.641,0.5561 -0.82,0.3497 -0.738,0.3498 -0.75,0.4215 -1.399,0.9147 -0.671,0.5202 -0.622,0.565 -0.628,0.5919 -0.579,0.6278 -0.55,0.6367 -0.551,0.6995 -0.5,0.7354 -0.469,0.7713 -0.473,0.8071 -0.429,0.8071 -0.391,0.8699 -0.387,0.9148 -0.351,0.9058 -0.36,0.9865 -0.269,0.9775 -0.313,1.0134 -0.468,2.1792 -0.231,1.1211 -0.32,2.3048 -0.149,1.2286 -0.082,1.2286 -0.078,1.2556 -0.082,1.3004 -0.039,1.3273 v 2.6994 l 0.039,1.3362 0.043,1.2914 0.078,1.2645 0.121,1.2197 0.231,2.3855 0.16,1.1569 0.188,1.121 0.203,1.0852 0.226,1.0493 0.282,1.0582 0.269,0.9775 0.313,0.9776 0.699,1.8205 0.789,1.686 0.461,0.7713 0.429,0.7712 0.508,0.7354 0.512,0.6637 0.551,0.6636 0.578,0.6367 0.633,0.5919 0.617,0.5561 1.332,0.9865 0.738,0.4573 0.75,0.4126 0.781,0.3587 0.821,0.3497 0.82,0.2781 1.789,0.4932 0.942,0.1704 0.976,0.1435 0.973,0.063 1.058,0.072 1.051,0.036 1.02,-0.036 1.949,-0.1345 0.941,-0.1435 0.899,-0.1704 1.722,-0.4932 0.821,-0.2781 1.558,-0.7084 0.739,-0.4126 1.41,-0.9147 1.332,-1.0493 0.578,-0.6009 0.59,-0.6277 0.582,-0.6637 0.508,-0.6636 0.55,-0.7354 0.942,-1.5425 0.429,-0.843 0.391,-0.843 0.777,-1.8206 0.622,-1.964 0.32,-1.0134 0.461,-2.1703 0.238,-1.121 0.191,-1.1569 0.161,-1.1928 0.121,-1.1927 0.109,-1.2556 0.078,-1.2645 0.082,-1.2914 0.039,-1.3362 z m -32.191,0 v -1.121 l 0.043,-1.121 0.039,-1.0852 0.039,-1.0492 0.039,-1.0224 0.16,-1.9551 0.11,-0.9506 0.121,-0.9147 0.121,-0.87 0.109,-0.843 0.32,-1.6142 0.192,-0.7713 0.199,-0.7354 0.231,-0.6995 0.468,-1.3273 0.231,-0.6277 0.32,-0.565 0.27,-0.5561 0.629,-1.0582 0.699,-0.9058 0.39,-0.4215 0.391,-0.3856 0.859,-0.6995 0.43,-0.3139 0.473,-0.2511 0.508,-0.2422 0.5,-0.2062 0.55,-0.2153 0.551,-0.1435 0.578,-0.1345 0.59,-0.1076 0.59,-0.072 0.66,-0.036 h 1.289 l 0.621,0.036 0.629,0.072 0.582,0.1076 0.59,0.1345 0.551,0.1435 0.5,0.2153 0.551,0.2062 0.937,0.4933 0.473,0.3139 0.429,0.3139 0.43,0.3497 0.391,0.3856 0.386,0.4215 0.391,0.4574 0.352,0.4484 0.937,1.5784 0.313,0.6009 0.269,0.6278 0.238,0.6277 0.231,0.6726 0.242,0.6996 0.188,0.7353 0.39,1.5426 0.16,0.834 0.121,0.843 0.149,0.8789 0.082,0.9058 0.117,0.9506 0.082,0.9775 0.149,2.0358 0.082,2.1703 0.039,1.121 v 2.2779 l -0.039,1.121 -0.039,1.0852 -0.043,1.0492 -0.079,1.0134 -0.152,1.9641 -0.117,0.9506 -0.082,0.9058 -0.149,0.8788 -0.121,0.8341 -0.16,0.8071 -0.187,0.8071 -0.203,0.7713 -0.188,0.6995 -0.473,1.3991 -0.238,0.6367 -0.269,0.6278 -0.621,1.121 -0.321,0.5291 -0.308,0.4843 -0.352,0.4932 -0.777,0.843 -0.391,0.3857 -0.859,0.6995 -0.942,0.556 -0.468,0.2511 -0.551,0.2063 -0.5,0.1793 -0.551,0.1704 -0.59,0.1435 -0.582,0.072 -1.25,0.1345 h -1.289 l -0.66,-0.063 -1.18,-0.1435 -0.578,-0.1435 -1.101,-0.3497 -0.5,-0.2063 -0.508,-0.2511 -0.473,-0.278 -0.43,-0.278 -0.859,-0.6995 -0.391,-0.3857 -0.39,-0.4215 -0.348,-0.4215 -0.351,-0.4932 -0.321,-0.4843 -0.308,-0.5291 -0.27,-0.556 -0.32,-0.565 -0.461,-1.2645 -0.469,-1.3991 -0.199,-0.6995 -0.192,-0.7713 -0.32,-1.6142 -0.109,-0.8341 -0.121,-0.8788 -0.121,-0.9058 -0.11,-0.9506 -0.16,-1.9641 -0.039,-1.0134 -0.039,-1.0492 -0.039,-1.0852 -0.043,-1.121 z"
         style="fill:#4d4d4d;fill-opacity:1;fill-rule:evenodd;stroke:none;stroke-width:0.94700283"
         id="path174"
         inkscape:connector-curvature="0" /><path
         d="m 356.879,378.67119 h 27.383"
         style="fill:none;stroke:#333333;stroke-width:10.10433102;stroke-linecap:butt;stroke-linejoin:round;stroke-miterlimit:10;stroke-dasharray:none;stroke-opacity:1"
         id="path176"
         inkscape:connector-curvature="0" /><path
         d="m 356.879,1940.3209 h 27.383"
         style="fill:none;stroke:#333333;stroke-width:10.10433102;stroke-linecap:butt;stroke-linejoin:round;stroke-miterlimit:10;stroke-dasharray:none;stroke-opacity:1"
         id="path178"
         inkscape:connector-curvature="0" /><path
         d="m 356.879,3501.9707 h 27.383"
         style="fill:none;stroke:#333333;stroke-width:10.10433102;stroke-linecap:butt;stroke-linejoin:round;stroke-miterlimit:10;stroke-dasharray:none;stroke-opacity:1"
         id="path180"
         inkscape:connector-curvature="0" /><path
         d="m 454.922,277.7446 v 24.56464"
         style="fill:none;stroke:#333333;stroke-width:10.10433102;stroke-linecap:butt;stroke-linejoin:round;stroke-miterlimit:10;stroke-dasharray:none;stroke-opacity:1"
         id="path182"
         inkscape:connector-curvature="0" /><path
         d="m 1867.62,277.7446 v 24.56464"
         style="fill:none;stroke:#333333;stroke-width:10.10433102;stroke-linecap:butt;stroke-linejoin:round;stroke-miterlimit:10;stroke-dasharray:none;stroke-opacity:1"
         id="path184"
         inkscape:connector-curvature="0" /><path
         d="m 3280.35,277.7446 v 24.56464"
         style="fill:none;stroke:#333333;stroke-width:10.10433102;stroke-linecap:butt;stroke-linejoin:round;stroke-miterlimit:10;stroke-dasharray:none;stroke-opacity:1"
         id="path186"
         inkscape:connector-curvature="0" /><path
         d="m 4693.09,277.7446 v 24.56464"
         style="fill:none;stroke:#333333;stroke-width:10.10433102;stroke-linecap:butt;stroke-linejoin:round;stroke-miterlimit:10;stroke-dasharray:none;stroke-opacity:1"
         id="path188"
         inkscape:connector-curvature="0" /><path
         d="m 475,229.99641 v -1.36316 l -0.039,-1.32729 -0.039,-1.26451 -0.082,-1.29948 -0.11,-1.21967 -0.121,-1.19097 -0.16,-1.19455 -0.148,-1.156 -0.199,-1.12102 -0.192,-1.08604 -0.238,-1.04748 -0.274,-1.05106 -0.277,-0.9874 -0.312,-0.97752 -0.7,-1.81874 -0.39,-0.8439 -0.43,-0.84391 -0.43,-0.80623 -0.468,-0.77037 -0.512,-0.73628 -1.09,-1.32729 -0.59,-0.62687 -0.578,-0.60266 -0.633,-0.55333 -0.699,-0.49415 -0.668,-0.49414 -0.742,-0.44841 -0.738,-0.42061 -0.782,-0.34975 -0.82,-0.35066 -0.82,-0.28698 -1.797,-0.48338 -0.973,-0.17847 -0.98,-0.13721 -0.981,-0.07 -1.047,-0.0735 -1.101,-0.035 -0.969,0.035 -0.98,0.0735 -0.942,0.07 -0.929,0.13721 -0.899,0.17847 -1.723,0.48338 -0.82,0.28698 -1.558,0.70041 -0.75,0.42061 -0.7,0.44841 -0.699,0.49414 -0.672,0.49415 -0.621,0.55333 -0.629,0.60266 -0.578,0.62687 -1.101,1.32729 -0.5,0.73628 -0.469,0.77037 -0.473,0.80623 -0.43,0.84391 -0.386,0.8439 -0.391,0.90399 -0.351,0.91475 -0.629,1.96492 -0.313,1.05106 -0.238,1.04748 -0.231,1.08604 -0.199,1.12102 -0.191,1.156 -0.16,1.19455 -0.11,1.19097 -0.121,1.21967 -0.078,1.29948 -0.078,1.26451 -0.043,1.32729 v 2.7012 l 0.043,1.32818 0.039,1.29949 0.078,1.25375 0.231,2.45906 0.121,1.15599 0.199,1.15689 0.148,1.12102 0.203,1.08515 0.231,1.08604 0.277,1.0125 0.27,0.97753 0.312,0.98829 0.699,1.81784 0.391,0.84391 0.43,0.83403 0.429,0.77126 0.469,0.77037 0.473,0.73538 0.547,0.70042 1.09,1.2654 0.632,0.5919 0.618,0.56409 0.671,0.52913 1.399,0.90667 0.742,0.42061 0.789,0.35066 0.82,0.34975 0.821,0.27712 0.898,0.28698 0.891,0.20716 0.941,0.17847 0.981,0.13631 1.008,0.10493 1.019,0.035 1.051,0.0386 1.019,-0.0386 0.981,-0.035 0.969,-0.10493 0.941,-0.13631 0.898,-0.17847 0.864,-0.20716 0.859,-0.28698 0.82,-0.27712 1.559,-0.70041 1.48,-0.8439 0.668,-0.48338 1.332,-1.05825 0.579,-0.59189 1.171,-1.26451 0.551,-0.70131 0.508,-0.7318 0.941,-1.54521 0.86,-1.67435 0.39,-0.91745 0.348,-0.90398 0.313,-0.95332 0.629,-2.025 0.46,-2.17837 0.239,-1.12101 0.191,-1.14882 0.16,-1.15689 0.231,-2.45907 0.16,-2.58821 0.039,-1.32818 z m -32.191,0 0.043,-1.156 v -1.12102 l 0.039,-1.08604 0.039,-1.04748 0.082,-1.0125 0.039,-0.98829 0.07,-0.97663 0.117,-0.94255 0.121,-0.87978 0.121,-0.91385 0.11,-0.83404 0.16,-0.80534 0.199,-0.80982 0.153,-0.77037 0.199,-0.73538 0.23,-0.69772 0.469,-1.33805 0.551,-1.1838 0.269,-0.56409 0.629,-1.05107 0.352,-0.45558 0.39,-0.45827 0.348,-0.42061 0.391,-0.37845 0.859,-0.70759 0.43,-0.27712 0.472,-0.2798 0.508,-0.24214 0.5,-0.21344 1.102,-0.35066 0.578,-0.14349 0.59,-0.0628 0.621,-0.10851 0.629,-0.035 h 1.293 l 0.617,0.035 0.633,0.10851 0.578,0.0628 0.59,0.14349 1.09,0.35066 0.511,0.21344 0.469,0.24214 0.512,0.2798 0.429,0.27712 0.43,0.32196 0.859,0.76408 0.348,0.38473 0.391,0.45559 0.351,0.45917 0.309,0.52912 0.351,0.52194 0.282,0.5641 0.308,0.55692 0.27,0.63405 0.238,0.63046 0.274,0.66185 0.199,0.73628 0.23,0.70041 0.16,0.77037 0.188,0.80623 0.16,0.80893 0.121,0.84121 0.149,0.90668 0.121,0.91475 0.082,0.94255 0.117,0.94883 0.07,1.01251 0.039,1.01609 0.082,2.16849 0.039,1.12102 v 2.27701 l -0.039,1.12102 -0.039,1.08604 -0.043,1.05824 -0.039,1.0152 -0.07,1.0125 -0.117,0.94973 -0.082,0.94255 -0.121,0.91385 -0.149,0.86902 -0.121,0.8439 -0.16,0.80624 -0.188,0.80892 -0.16,0.77037 -0.23,0.73628 -0.199,0.70041 -0.274,0.66185 -0.238,0.62777 -0.27,0.63674 -0.308,0.55782 -0.282,0.5632 -0.351,0.51925 -0.309,0.53181 -0.351,0.45559 -0.391,0.4484 -0.348,0.38563 -0.859,0.77037 -0.859,0.63763 -0.512,0.24214 -0.469,0.24124 -0.511,0.21703 -0.54,0.20717 -0.55,0.14349 -0.59,0.13273 -0.578,0.10941 -0.633,0.07 -0.617,0.035 h -1.293 l -0.629,-0.035 -0.621,-0.07 -0.59,-0.10941 -0.578,-0.13273 -0.551,-0.14349 -0.551,-0.20717 -0.5,-0.21703 -0.508,-0.24124 -0.472,-0.24214 -0.86,-0.63763 -0.429,-0.38474 -0.391,-0.38563 -0.348,-0.38563 -0.39,-0.4484 -0.352,-0.45559 -0.629,-1.05106 -0.55,-1.12102 -0.27,-0.63674 -0.23,-0.62777 -0.239,-0.66185 -0.23,-0.70041 -0.199,-0.73628 -0.153,-0.77037 -0.199,-0.80892 -0.16,-0.80624 -0.11,-0.8439 -0.121,-0.86902 -0.121,-0.91385 -0.117,-0.94255 -0.07,-0.94973 -0.039,-1.0125 -0.082,-1.0152 -0.039,-1.05824 -0.039,-1.08604 v -1.12102 z"
         style="fill:#4d4d4d;fill-opacity:1;fill-rule:evenodd;stroke:none;stroke-width:0.94700283"
         id="path190"
         inkscape:connector-curvature="0" /><path
         d="m 1849.73,201.72882 h -7.58 v 39.47776 l 0.04,0.38564 v 1.50575 l 0.04,0.35065 v 0.77036 l 0.04,0.35066 v 0.73539 l 0.03,0.38563 v 0.70041 l 0.04,0.35065 v 1.05735 l 0.04,0.35065 v 0.31209 l 0.04,0.31478 v 0.62777 l 0.04,0.32196 v 0.83404 l 0.04,0.2798 -0.31,-0.2798 -0.12,-0.13363 -0.16,-0.10851 -0.11,-0.14349 -1.06,-0.93897 -0.12,-0.0735 -0.35,-0.3121 -0.11,-0.0735 -0.24,-0.20626 -0.12,-0.07 -0.35,-0.31568 -0.11,-0.07 -0.36,-0.31568 -0.15,-0.10852 -0.12,-0.10851 -0.16,-0.0978 -0.11,-0.14349 -0.32,-0.21434 -0.15,-0.13273 -0.16,-0.10852 -0.15,-0.14349 -0.2,-0.13362 -0.16,-0.14708 -6.36,-4.65178 -4.14,4.76029 16.48,11.52586 h 6.45 z"
         style="fill:#4d4d4d;fill-opacity:1;fill-rule:evenodd;stroke:none;stroke-width:0.94700283"
         id="path192"
         inkscape:connector-curvature="0" /><path
         d="m 1911.95,229.99641 v -1.36316 l -0.04,-1.32729 -0.03,-1.26451 -0.08,-1.29948 -0.12,-1.21967 -0.12,-1.19097 -0.15,-1.19455 -0.16,-1.156 -0.2,-1.12102 -0.19,-1.08604 -0.24,-1.04748 -0.27,-1.05106 -0.27,-0.9874 -0.31,-0.97752 -0.32,-0.91475 -0.39,-0.90399 -0.39,-0.8439 -0.43,-0.84391 -0.43,-0.80623 -0.47,-0.77037 -0.5,-0.73628 -0.51,-0.66544 -0.59,-0.66185 -0.54,-0.62687 -0.63,-0.60266 -0.62,-0.55333 -0.67,-0.49415 -0.7,-0.49414 -0.74,-0.44841 -0.75,-0.42061 -0.78,-0.34975 -0.82,-0.35066 -0.82,-0.28698 -1.79,-0.48338 -0.94,-0.17847 -0.98,-0.13721 -1.01,-0.07 -1.06,-0.0735 -1.05,-0.035 -1.02,0.035 -0.98,0.0735 -0.93,0.07 -0.94,0.13721 -0.9,0.17847 -1.72,0.48338 -0.82,0.28698 -1.56,0.70041 -0.74,0.42061 -0.71,0.44841 -0.7,0.49414 -0.66,0.49415 -0.63,0.55333 -0.58,0.60266 -0.59,0.62687 -0.59,0.66185 -0.5,0.66544 -0.55,0.73628 -0.47,0.77037 -0.43,0.80623 -0.86,1.68781 -0.39,0.90399 -0.35,0.91475 -0.63,1.96492 -0.54,2.09854 -0.24,1.08604 -0.19,1.12102 -0.2,1.156 -0.15,1.19455 -0.12,1.19097 -0.12,1.21967 -0.08,1.29948 -0.07,1.26451 -0.04,1.32729 v 2.7012 l 0.04,1.32818 0.07,1.29949 0.04,1.25375 0.24,2.45906 0.31,2.31288 0.16,1.12102 0.46,2.17119 0.24,1.0125 0.62,1.96582 0.32,0.90399 0.35,0.91385 0.39,0.84391 0.43,0.83403 0.43,0.77126 0.47,0.77037 0.47,0.73538 0.54,0.70042 0.55,0.63763 0.58,0.62777 0.59,0.5919 0.63,0.56409 0.66,0.52913 1.41,0.90667 0.74,0.42061 0.78,0.35066 0.82,0.34975 0.82,0.27712 0.9,0.28698 0.9,0.20716 0.93,0.17847 0.98,0.13631 1.02,0.10493 1.01,0.035 1.1,0.0386 0.97,-0.0386 1.02,-0.035 0.94,-0.10493 0.93,-0.13631 0.9,-0.17847 0.86,-0.20716 0.86,-0.28698 0.82,-0.27712 0.82,-0.34975 0.74,-0.35066 1.49,-0.8439 0.66,-0.48338 1.33,-1.05825 0.62,-0.59189 0.59,-0.62777 0.55,-0.63674 0.54,-0.70131 0.51,-0.7318 0.94,-1.54521 0.86,-1.67435 0.39,-0.91745 0.35,-0.90398 0.35,-0.95332 0.28,-1.0125 0.31,-1.0125 0.27,-1.08515 0.24,-1.09322 0.19,-1.12101 0.2,-1.14882 0.15,-1.15689 0.24,-2.45907 0.12,-1.28872 0.03,-1.29949 0.04,-1.32818 z m -32.15,0 v -2.27702 l 0.04,-1.08604 0.04,-1.04748 0.08,-1.0125 0.04,-0.98829 0.12,-0.97663 0.08,-0.94255 0.11,-0.87978 0.12,-0.91385 0.16,-0.83404 0.11,-0.80534 0.2,-0.80982 0.15,-0.77037 0.2,-0.73538 0.23,-0.69772 0.47,-1.33805 0.55,-1.1838 0.27,-0.56409 0.32,-0.52195 0.35,-0.52912 0.31,-0.45558 0.39,-0.45827 0.35,-0.42061 0.39,-0.37845 0.86,-0.70759 0.43,-0.27712 0.51,-0.2798 0.47,-0.24214 0.51,-0.21344 1.09,-0.35066 0.59,-0.14349 0.58,-0.0628 0.63,-0.10851 0.62,-0.035 h 1.29 l 0.63,0.035 0.62,0.10851 0.59,0.0628 0.58,0.14349 1.1,0.35066 0.5,0.21344 0.47,0.24214 0.51,0.2798 0.43,0.27712 0.47,0.32196 0.39,0.38563 0.43,0.37845 0.39,0.38473 0.7,0.91476 0.35,0.52912 0.32,0.52194 0.27,0.5641 0.31,0.55692 0.55,1.26451 0.23,0.66185 0.2,0.73628 0.23,0.70041 0.2,0.77037 0.31,1.61516 0.12,0.84121 0.16,0.90668 0.11,0.91475 0.08,0.94255 0.12,0.94883 0.08,1.01251 0.04,1.01609 0.07,2.16849 0.04,1.12102 v 2.27701 l -0.04,1.12102 -0.04,1.08604 -0.03,1.05824 -0.04,1.0152 -0.08,1.0125 -0.12,0.94973 -0.08,0.94255 -0.11,0.91385 -0.16,0.86902 -0.12,0.8439 -0.31,1.61516 -0.2,0.77037 -0.23,0.73628 -0.2,0.70041 -0.23,0.66185 -0.55,1.26451 -0.31,0.55782 -0.27,0.5632 -0.32,0.51925 -0.35,0.53181 -0.7,0.90399 -0.39,0.38563 -0.43,0.38563 -0.39,0.38474 -0.47,0.31567 -0.43,0.32196 -0.51,0.24214 -0.47,0.24124 -0.5,0.21703 -0.55,0.20717 -0.55,0.14349 -0.58,0.13273 -0.59,0.10941 -0.62,0.07 -0.63,0.035 h -1.29 l -0.62,-0.035 -0.63,-0.07 -0.58,-0.10941 -0.59,-0.13273 -0.55,-0.14349 -0.54,-0.20717 -0.51,-0.21703 -0.47,-0.24124 -0.51,-0.24214 -0.86,-0.63763 -0.43,-0.38474 -0.39,-0.38563 -0.35,-0.38563 -0.39,-0.4484 -0.31,-0.45559 -0.35,-0.53181 -0.32,-0.51925 -0.54,-1.12102 -0.28,-0.63674 -0.23,-0.62777 -0.24,-0.66185 -0.23,-0.70041 -0.2,-0.73628 -0.15,-0.77037 -0.2,-0.80892 -0.11,-0.80624 -0.16,-0.8439 -0.12,-0.86902 -0.11,-0.91385 -0.08,-0.94255 -0.12,-0.94973 -0.04,-1.0125 -0.08,-1.0152 -0.04,-1.05824 -0.04,-1.08604 z"
         style="fill:#4d4d4d;fill-opacity:1;fill-rule:evenodd;stroke:none;stroke-width:0.94700283"
         id="path194"
         inkscape:connector-curvature="0" /><path
         d="m 3275.2,201.72882 h -39.18 v 6.02928 l 15.03,14.67816 0.63,0.63046 1.25,1.19097 0.59,0.59279 0.58,0.5641 0.55,0.55692 0.58,0.5641 0.51,0.55692 0.55,0.52822 1.01,1.05107 0.47,0.49056 0.47,0.52194 0.47,0.49415 0.43,0.51836 0.43,0.49414 0.39,0.49415 0.39,0.51836 0.39,0.49414 1.06,1.47078 0.62,0.97752 0.55,0.98471 0.23,0.52194 0.24,0.49415 0.19,0.49324 0.24,0.49056 0.15,0.48338 0.32,1.05107 0.23,1.05824 0.16,1.12102 0.04,0.55692 v 0.5641 l 0.03,0.5919 v 0.45916 l -0.11,1.25375 -0.08,0.42061 -0.16,0.77036 -0.11,0.38922 -0.12,0.34706 -0.31,0.70042 -0.16,0.32195 -0.2,0.35066 -0.19,0.2798 -0.2,0.3121 -0.19,0.27711 -0.47,0.56679 -0.82,0.73628 -0.27,0.20268 -0.32,0.21703 -0.27,0.20717 -0.31,0.21344 -0.35,0.17219 -0.32,0.17846 -1.05,0.41343 -1.17,0.32196 -0.78,0.13362 -0.43,0.0386 -0.43,0.07 -0.43,0.035 h -1.72 l -0.78,-0.035 -0.78,-0.10852 -1.49,-0.20357 -0.74,-0.18206 -1.41,-0.4206 -0.7,-0.24124 -0.66,-0.31568 -0.67,-0.27712 -0.62,-0.32196 -0.67,-0.35065 -1.25,-0.70041 -0.62,-0.42061 -0.59,-0.38473 -0.62,-0.41343 -0.59,-0.42061 -0.62,-0.45917 -4.38,4.55761 1.06,0.83404 0.35,0.25201 0.39,0.27711 0.35,0.24124 2.34,1.47168 0.43,0.21344 0.43,0.24214 0.39,0.21703 0.86,0.4206 0.47,0.17129 0.43,0.21434 0.47,0.17129 0.43,0.17847 0.47,0.13363 0.47,0.18205 0.47,0.13273 0.5,0.14349 0.47,0.14349 0.51,0.13362 0.47,0.10852 2.03,0.4206 0.51,0.0735 0.54,0.07 0.51,0.0628 2.19,0.14349 h 0.55 l 1.64,-0.07 0.78,-0.035 0.74,-0.0735 0.78,-0.0978 0.74,-0.10851 1.41,-0.27712 0.66,-0.17846 0.71,-0.20717 0.66,-0.21703 1.25,-0.48338 1.17,-0.5641 0.55,-0.31478 0.55,-0.35065 0.51,-0.31209 0.5,-0.38474 0.47,-0.38563 0.43,-0.38563 0.86,-0.8439 0.39,-0.45917 0.35,-0.44841 0.71,-0.9838 0.54,-1.05107 0.28,-0.56409 0.23,-0.55692 0.24,-0.5919 0.19,-0.59907 0.16,-0.5928 0.15,-0.63763 0.12,-0.62688 0.08,-0.62687 0.08,-0.66544 0.04,-0.70758 v -1.32818 l -0.04,-0.62688 -0.08,-0.67261 -0.16,-1.25733 -0.15,-0.59907 -0.12,-0.62688 -0.2,-0.59279 -0.19,-0.63764 -0.47,-1.18379 -0.24,-0.5641 -0.54,-1.19455 -0.31,-0.5919 -0.32,-0.5641 -0.7,-1.18379 -0.39,-0.5641 -0.39,-0.5919 -0.39,-0.56409 -0.43,-0.55693 -0.43,-0.60265 -0.47,-0.55334 -0.47,-0.60266 -0.47,-0.55692 -0.51,-0.5641 -0.5,-0.59189 -0.55,-0.5641 -0.55,-0.5919 -0.54,-0.55692 -0.59,-0.59907 -0.55,-0.5928 -1.17,-1.19455 -0.62,-0.5919 -0.59,-0.59907 -1.25,-1.25734 -0.66,-0.59907 -12.07,-11.52586 v -0.31119 h 29.61 z"
         style="fill:#4d4d4d;fill-opacity:1;fill-rule:evenodd;stroke:none;stroke-width:0.94700283"
         id="path196"
         inkscape:connector-curvature="0" /><path
         d="m 3324.69,229.99641 v -1.36316 l -0.04,-1.32729 -0.04,-1.26451 -0.08,-1.29948 -0.12,-1.21967 -0.11,-1.19097 -0.16,-1.19455 -0.16,-1.156 -0.19,-1.12102 -0.2,-1.08604 -0.23,-1.04748 -0.27,-1.05106 -0.28,-0.9874 -0.31,-0.97752 -0.7,-1.81874 -0.39,-0.8439 -0.43,-0.84391 -0.43,-0.80623 -0.51,-0.77037 -0.47,-0.73628 -1.09,-1.32729 -0.59,-0.62687 -0.59,-0.60266 -0.66,-0.55333 -1.33,-0.98829 -0.74,-0.44841 -0.74,-0.42061 -0.78,-0.34975 -0.82,-0.35066 -0.86,-0.28698 -0.86,-0.24214 -0.94,-0.24124 -0.94,-0.17847 -0.97,-0.13721 -2.04,-0.14349 -1.09,-0.035 -0.98,0.035 -1.95,0.14349 -0.9,0.13721 -0.9,0.17847 -0.89,0.24124 -0.82,0.24214 -0.82,0.28698 -0.82,0.35066 -0.75,0.34975 -0.74,0.42061 -0.7,0.44841 -0.71,0.49414 -0.66,0.49415 -0.62,0.55333 -0.63,0.60266 -0.59,0.62687 -1.09,1.32729 -0.51,0.73628 -0.47,0.77037 -0.46,0.80623 -0.43,0.84391 -0.39,0.8439 -0.4,0.90399 -0.35,0.91475 -0.35,0.97752 -0.27,0.9874 -0.31,1.05106 -0.24,1.04748 -0.23,1.08604 -0.24,1.12102 -0.15,1.156 -0.32,2.38552 -0.07,1.21967 -0.08,1.29948 -0.08,1.26451 -0.04,1.32729 v 2.7012 l 0.04,1.32818 0.04,1.29949 0.08,1.25375 0.23,2.45906 0.12,1.15599 0.15,1.15689 0.2,1.12102 0.19,1.08515 0.24,1.08604 0.27,1.0125 0.28,0.97753 0.31,0.98829 0.7,1.81784 0.78,1.67794 0.47,0.77126 0.43,0.77037 0.51,0.73538 0.51,0.70042 0.54,0.63763 0.59,0.62777 0.63,0.5919 0.62,0.56409 0.66,0.52913 0.67,0.4484 0.74,0.45827 0.74,0.42061 0.78,0.35066 0.82,0.34975 0.82,0.27712 0.9,0.28698 0.9,0.20716 0.94,0.17847 0.98,0.13631 0.97,0.10493 2.11,0.0735 1.02,-0.0386 0.97,-0.035 0.98,-0.10493 0.94,-0.13631 0.9,-0.17847 0.86,-0.20716 0.85,-0.28698 0.83,-0.27712 1.56,-0.70041 0.74,-0.42061 0.7,-0.42329 0.71,-0.48338 0.66,-0.52913 0.63,-0.52912 0.62,-0.59189 1.17,-1.26451 0.51,-0.70131 0.55,-0.7318 0.93,-1.54521 0.43,-0.83314 0.39,-0.84121 0.79,-1.82143 0.31,-0.95332 0.62,-2.025 0.47,-2.17837 0.24,-1.12101 0.19,-1.14882 0.16,-1.15689 0.23,-2.45907 0.16,-2.58821 0.04,-1.32818 z m -32.19,0 v -1.156 l 0.04,-1.12102 0.04,-1.08604 0.04,-1.04748 0.04,-1.0125 0.15,-1.96492 0.12,-0.94255 0.12,-0.87978 0.11,-0.91385 0.12,-0.83404 0.31,-1.61516 0.2,-0.77037 0.19,-0.73538 0.24,-0.69772 0.47,-1.33805 0.23,-0.5919 0.31,-0.5919 0.28,-0.56409 0.62,-1.05107 0.71,-0.91385 0.39,-0.42061 0.39,-0.37845 0.86,-0.70759 0.43,-0.27712 0.47,-0.2798 0.5,-0.24214 0.51,-0.21344 1.09,-0.35066 0.59,-0.14349 0.59,-0.0628 0.58,-0.10851 0.67,-0.035 h 1.29 l 0.62,0.035 0.63,0.10851 0.58,0.0628 0.59,0.14349 0.54,0.17936 0.51,0.1713 0.55,0.21344 0.47,0.24214 0.93,0.55692 0.43,0.32196 0.43,0.38563 0.79,0.76318 0.39,0.45559 0.35,0.45917 0.62,1.05106 0.63,1.12102 0.27,0.63405 0.24,0.63046 0.23,0.66185 0.23,0.73628 0.2,0.70041 0.19,0.77037 0.2,0.80623 0.16,0.80893 0.11,0.84121 0.24,1.82143 0.12,0.94255 0.07,0.94883 0.16,2.0286 0.08,2.16849 0.04,1.12102 v 2.27701 l -0.04,1.12102 -0.04,1.08604 -0.04,1.05824 -0.16,2.0277 -0.07,0.94973 -0.12,0.94255 -0.12,0.91385 -0.12,0.86902 -0.11,0.8439 -0.16,0.80624 -0.2,0.80892 -0.19,0.77037 -0.2,0.73628 -0.23,0.70041 -0.23,0.66185 -0.24,0.62777 -0.27,0.63674 -0.63,1.12102 -0.62,1.05106 -0.35,0.45559 -0.39,0.4484 -0.79,0.77126 -0.43,0.38474 -0.43,0.31567 -0.46,0.32196 -0.94,0.48338 -0.55,0.21703 -0.51,0.20717 -0.54,0.14349 -0.59,0.13273 -0.58,0.10941 -0.63,0.07 -0.62,0.035 h -1.29 l -0.67,-0.035 -0.58,-0.07 -0.59,-0.10941 -0.59,-0.13273 -0.54,-0.14349 -0.55,-0.20717 -0.51,-0.21703 -0.5,-0.24124 -0.47,-0.24214 -0.86,-0.63763 -0.43,-0.38474 -0.78,-0.77126 -0.71,-0.90399 -0.62,-1.05106 -0.28,-0.5632 -0.31,-0.55782 -0.47,-1.26451 -0.23,-0.66185 -0.24,-0.70041 -0.19,-0.73628 -0.2,-0.77037 -0.31,-1.61516 -0.12,-0.8439 -0.11,-0.86902 -0.12,-0.91385 -0.12,-0.94255 -0.08,-0.94973 -0.07,-1.0125 -0.04,-1.0152 -0.04,-1.05824 -0.04,-1.08604 -0.04,-1.12102 z"
         style="fill:#4d4d4d;fill-opacity:1;fill-rule:evenodd;stroke:none;stroke-width:0.94700283"
         id="path198"
         inkscape:connector-curvature="0" /><path
         d="m 4685.9,244.88442 v -0.55692 l -0.04,-0.52822 -0.04,-0.55424 -0.08,-0.53181 -0.08,-0.48338 -0.11,-0.52912 -0.12,-0.49415 -0.16,-0.48338 -0.19,-0.49414 -0.16,-0.45558 -0.23,-0.45828 -0.2,-0.4484 -0.23,-0.42061 -0.55,-0.8448 -0.27,-0.38473 -0.32,-0.38563 -0.31,-0.35066 -1.05,-1.04748 -0.78,-0.63763 -0.39,-0.27622 -0.43,-0.31568 -0.43,-0.24124 -0.43,-0.28788 -0.94,-0.48338 -0.51,-0.25201 -0.51,-0.20626 -0.5,-0.17937 -0.51,-0.20626 -0.55,-0.14349 -0.55,-0.16861 -0.54,-0.14707 -1.17,-0.27622 -0.59,-0.10852 -0.63,-0.0986 v -0.21344 l 1.49,-0.20716 1.41,-0.25201 1.36,-0.31119 1.25,-0.35066 1.21,-0.38563 1.1,-0.49414 1.05,-0.48338 0.98,-0.60177 0.9,-0.59279 0.82,-0.69683 0.74,-0.70041 0.7,-0.77126 0.59,-0.77036 0.51,-0.8439 0.43,-0.90758 0.35,-0.91475 0.27,-0.97663 0.2,-1.02327 0.11,-1.04748 0.04,-1.08604 v -0.73539 l -0.04,-0.73628 -0.15,-1.39724 -0.47,-2.00079 -0.24,-0.66185 -0.23,-0.63046 -0.27,-0.63405 -0.28,-0.59189 -0.31,-0.60266 -0.35,-0.55692 -0.78,-1.12102 -0.47,-0.52912 -0.43,-0.48339 -0.51,-0.49414 -1.09,-0.91385 -0.59,-0.44841 -0.58,-0.42061 -1.33,-0.77126 -0.71,-0.34976 -0.74,-0.35065 -0.74,-0.32196 -0.78,-0.2807 -0.86,-0.27622 -0.82,-0.24214 -0.9,-0.252 -0.9,-0.20358 -1.95,-0.34976 -1.02,-0.14349 -1.01,-0.10941 -2.19,-0.13273 -1.13,-0.0386 -1.17,-0.035 -0.94,0.035 h -0.94 l -1.8,0.0735 -0.89,0.07 -0.86,0.0637 -0.9,0.10852 -0.86,0.07 -0.82,0.13632 -0.86,0.10492 -0.82,0.14708 -0.82,0.1686 -0.78,0.17847 -1.57,0.42419 -0.78,0.27622 -0.78,0.24214 -2.23,0.95242 v 6.54405 l 0.75,-0.34976 2.34,-0.93896 0.82,-0.2807 0.78,-0.24842 0.86,-0.24214 0.82,-0.25201 1.72,-0.41343 1.72,-0.34976 0.86,-0.14438 1.72,-0.20627 0.82,-0.10493 0.82,-0.0735 1.64,-0.07 h 1.56 l 0.78,0.035 0.75,0.035 0.7,0.035 0.7,0.0735 0.67,0.0977 0.66,0.07 0.62,0.14708 0.59,0.10582 0.59,0.1713 0.58,0.14349 0.55,0.1686 0.51,0.21703 0.5,0.1677 0.47,0.21703 0.47,0.24214 1.29,0.73539 0.35,0.27711 0.39,0.31478 0.36,0.28788 0.31,0.31478 0.31,0.34707 0.55,0.70041 0.23,0.38563 0.24,0.35066 0.19,0.41971 0.2,0.38563 0.15,0.42419 0.16,0.45558 0.12,0.41254 0.23,0.91475 0.16,0.97752 0.07,0.9874 v 0.51925 l -0.03,0.49325 v 0.52912 l -0.08,0.44841 -0.08,0.49414 -0.12,0.45558 -0.11,0.4233 -0.32,0.83404 -0.19,0.38563 -0.47,0.77036 -0.24,0.35066 -0.27,0.35693 -0.94,0.94255 -0.35,0.27712 -0.39,0.28698 -0.78,0.48697 -0.43,0.24841 -0.47,0.20717 -0.47,0.24124 -0.47,0.18205 -0.5,0.20358 -0.55,0.18205 -0.55,0.13273 -0.54,0.17937 -0.59,0.10851 -0.59,0.13273 -1.25,0.21703 -0.66,0.0709 -0.63,0.0628 -0.7,0.0735 -0.66,0.0699 -0.71,0.035 -0.74,0.0386 h -7.22 v 5.80867 h 5.74 l 0.66,0.0386 h 0.7 l 0.63,0.035 0.66,0.0699 0.63,0.0735 0.58,0.07 0.63,0.0977 0.59,0.14708 0.54,0.10582 0.55,0.13632 0.55,0.17847 1.01,0.35065 0.94,0.41971 0.43,0.24214 0.43,0.20627 0.39,0.28787 0.39,0.24125 0.39,0.27711 0.35,0.28698 0.35,0.31568 0.63,0.62688 0.55,0.70041 0.46,0.69772 0.24,0.38473 0.39,0.77485 0.16,0.41971 0.11,0.42061 0.16,0.42419 0.16,0.84031 0.07,0.44841 0.08,0.91475 v 0.8439 l -0.04,0.42061 -0.04,0.35065 -0.04,0.38474 -0.23,1.05106 -0.12,0.35066 -0.62,1.25374 -0.59,0.8448 -0.23,0.24842 -0.24,0.27981 -0.27,0.20716 -0.27,0.24842 -0.28,0.20716 -0.27,0.24125 -0.31,0.21703 -0.63,0.35065 -0.35,0.1686 -0.31,0.17847 -0.35,0.14349 -0.39,0.17129 -0.39,0.10851 -0.4,0.13363 -0.78,0.21703 -1.72,0.27711 -0.93,0.0699 h -1.84 l -0.9,-0.035 -0.86,-0.07 -0.86,-0.10941 -0.82,-0.0978 -0.78,-0.14349 -0.78,-0.17129 -1.48,-0.4206 -0.75,-0.25201 -0.66,-0.27711 -0.7,-0.27712 -0.67,-0.27981 -0.7,-0.32285 -0.66,-0.31478 -1.33,-0.69683 -0.63,-0.38563 -0.66,-0.38921 -0.63,-0.41971 -3.94,4.83383 0.31,0.21703 0.7,0.49055 0.36,0.20717 0.35,0.24124 0.7,0.42419 1.56,0.84032 0.86,0.42419 1.29,0.51836 0.47,0.17847 0.43,0.17218 0.47,0.17847 0.47,0.14349 0.47,0.17219 0.5,0.14349 0.47,0.13273 1.02,0.28698 0.51,0.0986 0.5,0.14349 1.02,0.20627 0.55,0.0708 0.54,0.10852 1.1,0.14349 0.58,0.0628 0.55,0.035 0.59,0.0735 h 0.58 l 1.17,0.07 h 0.59 l 0.94,-0.035 0.9,-0.035 0.85,-0.035 0.86,-0.0735 0.82,-0.0978 0.79,-0.10851 0.78,-0.14349 0.74,-0.13363 0.74,-0.17846 1.41,-0.4242 1.33,-0.48338 0.62,-0.28698 1.17,-0.55692 0.55,-0.31209 1.01,-0.70041 0.51,-0.38563 0.47,-0.34976 0.43,-0.42061 0.39,-0.38563 0.43,-0.4206 0.7,-0.91745 0.63,-0.90398 0.27,-0.52913 0.24,-0.49414 0.23,-0.51836 0.39,-1.05106 0.16,-0.5632 0.12,-0.52195 0.11,-0.5641 0.08,-0.59279 0.08,-0.5632 0.04,-0.59279 z"
         style="fill:#4d4d4d;fill-opacity:1;fill-rule:evenodd;stroke:none;stroke-width:0.94700283"
         id="path200"
         inkscape:connector-curvature="0" /><path
         d="m 4737.42,229.99641 v -1.36316 l -0.04,-1.32729 -0.08,-1.26451 -0.07,-1.29948 -0.08,-1.21967 -0.12,-1.19097 -0.15,-1.19455 -0.16,-1.156 -0.2,-1.12102 -0.23,-1.08604 -0.47,-2.09854 -0.27,-0.9874 -0.32,-0.97752 -0.7,-1.81874 -0.39,-0.8439 -0.43,-0.84391 -0.47,-0.80623 -0.47,-0.77037 -0.5,-0.73628 -0.51,-0.66544 -0.55,-0.66185 -0.59,-0.62687 -0.62,-0.60266 -0.62,-0.55333 -0.67,-0.49415 -0.7,-0.49414 -0.71,-0.44841 -0.74,-0.42061 -0.78,-0.34975 -0.82,-0.35066 -0.86,-0.28698 -0.86,-0.24214 -0.94,-0.24124 -0.93,-0.17847 -0.98,-0.13721 -1.01,-0.07 -1.06,-0.0735 -1.05,-0.035 -1.02,0.035 -0.98,0.0735 -0.93,0.07 -0.94,0.13721 -0.9,0.17847 -1.72,0.48338 -0.82,0.28698 -1.56,0.70041 -0.7,0.42061 -0.75,0.44841 -1.33,0.98829 -0.62,0.55333 -0.62,0.60266 -0.59,0.62687 -1.09,1.32729 -0.51,0.73628 -0.47,0.77037 -0.47,0.80623 -0.43,0.84391 -0.39,0.8439 -0.39,0.90399 -0.35,0.91475 -0.35,0.97752 -0.32,0.9874 -0.54,2.09854 -0.24,1.08604 -0.19,1.12102 -0.16,1.156 -0.31,2.38552 -0.12,1.21967 -0.08,1.29948 -0.04,1.26451 -0.04,1.32729 -0.03,1.36316 0.07,2.66622 0.04,1.29949 0.08,1.25375 0.08,1.22953 0.12,1.22953 0.31,2.31288 0.19,1.12102 0.2,1.08515 0.23,1.08604 0.28,1.0125 0.27,0.97753 0.31,0.98829 0.71,1.81784 0.78,1.67794 0.43,0.77126 0.47,0.77037 0.5,0.73538 0.51,0.70042 0.55,0.63763 0.58,0.62777 0.59,0.5919 0.66,0.56409 0.67,0.52913 0.66,0.4484 0.71,0.45827 0.74,0.42061 0.78,0.35066 0.82,0.34975 1.72,0.5641 0.94,0.20716 0.93,0.17847 0.94,0.13631 1.02,0.10493 2.11,0.0735 1.01,-0.0386 0.98,-0.035 0.94,-0.10493 0.93,-0.13631 0.9,-0.17847 0.9,-0.20716 0.86,-0.28698 0.82,-0.27712 1.56,-0.70041 0.74,-0.42061 0.71,-0.42329 0.7,-0.48338 0.66,-0.52913 0.63,-0.52912 0.62,-0.59189 0.59,-0.62777 0.55,-0.63674 0.54,-0.70131 0.51,-0.7318 0.51,-0.77395 0.9,-1.6044 0.39,-0.84121 0.39,-0.91745 0.35,-0.90398 0.35,-0.95332 0.31,-1.0125 0.28,-1.0125 0.27,-1.08515 0.24,-1.09322 0.19,-1.12101 0.2,-1.14882 0.15,-1.15689 0.16,-1.22954 0.12,-1.22953 0.15,-2.58821 0.04,-1.32818 z m -32.19,0 v -1.156 l 0.04,-1.12102 v -1.08604 l 0.08,-1.04748 0.04,-1.0125 0.16,-1.96492 0.11,-0.94255 0.08,-0.87978 0.12,-0.91385 0.16,-0.83404 0.31,-1.61516 0.19,-0.77037 0.2,-0.73538 0.19,-0.69772 0.24,-0.66544 0.27,-0.67261 0.24,-0.5919 0.27,-0.5919 0.31,-0.56409 0.63,-1.05107 0.7,-0.91385 0.39,-0.42061 0.39,-0.37845 0.39,-0.35783 0.43,-0.34976 0.94,-0.55692 0.51,-0.24214 0.5,-0.21344 0.51,-0.1713 0.59,-0.17936 0.55,-0.14349 0.58,-0.0628 0.63,-0.10851 0.62,-0.035 h 1.33 l 0.62,0.035 0.59,0.10851 0.63,0.0628 0.54,0.14349 1.1,0.35066 0.5,0.21344 0.51,0.24214 0.94,0.55692 0.43,0.32196 0.43,0.38563 0.78,0.76318 0.7,0.91476 0.35,0.52912 0.32,0.52194 0.31,0.5641 0.27,0.55692 0.55,1.26451 0.23,0.66185 0.24,0.73628 0.19,0.70041 0.2,0.77037 0.31,1.61516 0.16,0.84121 0.23,1.82143 0.12,0.94255 0.08,0.94883 0.15,2.0286 0.08,2.16849 v 4.51905 l -0.04,1.08604 -0.04,1.05824 -0.15,2.0277 -0.08,0.94973 -0.12,0.94255 -0.11,0.91385 -0.12,0.86902 -0.16,0.8439 -0.31,1.61516 -0.2,0.77037 -0.19,0.73628 -0.24,0.70041 -0.23,0.66185 -0.55,1.26451 -0.27,0.55782 -0.31,0.5632 -0.32,0.51925 -0.35,0.53181 -0.7,0.90399 -0.78,0.77126 -0.43,0.38474 -0.43,0.31567 -0.47,0.32196 -0.47,0.24214 -0.51,0.24124 -0.5,0.21703 -0.55,0.20717 -1.09,0.27622 -0.63,0.10941 -0.59,0.07 -0.62,0.035 h -1.33 l -0.62,-0.035 -0.63,-0.07 -0.58,-0.10941 -0.55,-0.13273 -0.59,-0.14349 -1.01,-0.4242 -0.51,-0.24124 -0.47,-0.24214 -0.47,-0.32196 -0.43,-0.31567 -1.17,-1.156 -0.7,-0.90399 -0.63,-1.05106 -0.31,-0.5632 -0.27,-0.55782 -0.24,-0.63674 -0.27,-0.62777 -0.24,-0.66185 -0.19,-0.70041 -0.2,-0.73628 -0.19,-0.77037 -0.31,-1.61516 -0.16,-0.8439 -0.12,-0.86902 -0.08,-0.91385 -0.11,-0.94255 -0.08,-0.94973 -0.08,-1.0125 -0.04,-1.0152 -0.08,-1.05824 v -1.08604 l -0.04,-1.12102 z"
         style="fill:#4d4d4d;fill-opacity:1;fill-rule:evenodd;stroke:none;stroke-width:0.94700283"
         id="path202"
         inkscape:connector-curvature="0" /><path
         d="m 2690.08,116.77359 v -1.74789 l -0.08,-1.71291 -0.12,-1.68512 -0.19,-1.61516 -0.24,-1.6044 -0.27,-1.54162 -0.35,-1.50665 -0.39,-1.4358 -0.43,-1.4367 -0.51,-1.36943 -0.51,-1.293211 -0.58,-1.299484 -0.63,-1.229533 -0.7,-1.183795 -0.7,-1.121197 -0.79,-1.121018 -0.82,-1.057882 -0.86,-1.012414 -0.89,-0.977438 -0.98,-0.914302 -0.98,-0.872331 -1.05,-0.840764 -1.1,-0.770722 -1.13,-0.735657 -1.17,-0.700591 -1.25,-0.672611 -1.25,-0.592077 -1.33,-0.557011 -1.37,-0.528941 -1.4,-0.493966 -1.41,-0.420337 -1.48,-0.385361 -1.53,-0.350385 -1.56,-0.276667 -1.6,-0.241781 -1.6,-0.217209 -1.68,-0.133087 -1.72,-0.14367 -1.72,-0.07354 h -21.44 v 70.420642 h 21.83 l 1.64,-0.0386 1.6,-0.0699 1.57,-0.10852 1.52,-0.13272 1.52,-0.21703 1.45,-0.24214 1.44,-0.27712 1.41,-0.31478 1.41,-0.38563 1.32,-0.42061 1.33,-0.49325 1.25,-0.49414 1.25,-0.55692 1.17,-0.59907 1.18,-0.62688 1.09,-0.66633 1.09,-0.73539 1.02,-0.77036 1.02,-0.80624 1.87,-1.74789 0.86,-0.95242 0.82,-0.94255 0.78,-1.0125 0.74,-1.08604 0.71,-1.09322 0.66,-1.14882 0.59,-1.15599 0.58,-1.22954 1.02,-2.5891 0.43,-1.37302 0.39,-1.36316 0.35,-1.4358 0.27,-1.47167 0.24,-1.54162 0.19,-1.54073 0.12,-1.58019 0.08,-1.63938 z m -10.55,-0.27711 -0.08,2.73618 -0.07,1.28962 -0.16,1.30307 -0.16,1.21877 -0.19,1.19097 -0.24,1.15599 -0.23,1.12102 -0.31,1.08604 -0.71,2.03577 -0.43,0.97753 -0.43,0.95242 -0.47,0.90398 -0.46,0.84391 -0.55,0.8448 -0.59,0.80534 -0.58,0.73538 -0.63,0.73629 -0.66,0.66185 -0.7,0.66543 -0.71,0.59907 -0.74,0.5919 -0.78,0.52912 -0.82,0.52195 -0.86,0.45558 -0.9,0.45917 -0.9,0.38473 -0.94,0.38563 -0.97,0.35066 -2.03,0.55692 -1.06,0.24842 -1.09,0.24214 -1.1,0.17129 -1.13,0.14349 -1.17,0.10851 -1.17,0.0709 -1.21,0.0628 h -12.07 V 88.614968 h 8.71 l 2.77,0.06305 2.62,0.213711 2.5,0.350295 2.34,0.493966 2.19,0.627052 2.07,0.770723 1.95,0.907307 1.76,1.057972 1.68,1.184064 1.48,1.334639 1.37,1.506648 1.25,1.615162 1.06,1.712913 0.93,1.89138 0.82,2.02859 0.63,2.14339 0.51,2.31288 0.35,2.41333 0.23,2.55413 z"
         style="fill:#000000;fill-opacity:1;fill-rule:evenodd;stroke:none;stroke-width:0.94700283"
         id="path204"
         inkscape:connector-curvature="0" /><path
         d="m 2739.41,80.900929 -1.99,7.328678 h -0.43 l -1.05,-1.264688 -0.35,-0.385361 -0.39,-0.385271 -0.36,-0.385362 -0.7,-0.700681 -0.35,-0.31523 -0.35,-0.346888 -0.35,-0.280254 -0.36,-0.322226 -0.39,-0.276756 -0.39,-0.241782 -0.35,-0.280254 -0.78,-0.493876 -0.43,-0.213711 -0.39,-0.206715 -0.86,-0.420337 -0.86,-0.350386 -0.47,-0.17165 -0.47,-0.14358 -0.46,-0.178735 -0.47,-0.09802 -0.51,-0.143669 -0.47,-0.108605 -0.55,-0.09811 -0.5,-0.108515 -1.1,-0.143669 -0.58,-0.07004 -0.59,-0.02807 -0.59,-0.07004 -0.62,-0.03506 h -0.63 l -0.66,-0.03847 h -0.66 l -0.75,0.03847 h -0.74 l -1.41,0.133176 -0.66,0.07004 -0.7,0.108604 -0.67,0.14358 -0.62,0.133177 -0.67,0.182143 -1.25,0.350295 -0.58,0.203219 -0.59,0.252184 -0.54,0.241781 -1.1,0.557011 -0.51,0.322226 -1.01,0.700681 -0.47,0.385361 -0.43,0.385361 -0.43,0.448407 -0.39,0.420337 -0.39,0.4589 -0.7,0.977438 -0.32,0.528941 -0.62,1.121018 -0.24,0.564007 -0.27,0.592076 -0.19,0.627053 -0.4,1.338226 -0.23,1.397775 -0.08,0.735657 -0.08,0.770722 -0.03,0.770723 v 0.809105 l 0.03,1.541624 0.2,1.470776 0.31,1.39813 0.43,1.32819 0.55,1.22953 0.7,1.19097 0.78,1.08604 0.94,1.05107 1.06,0.94883 1.17,0.86901 1.29,0.80893 1.44,0.73628 1.56,0.66185 1.72,0.60266 1.8,0.48338 1.99,0.42061 2.07,0.34976 2.23,0.28698 2.3,0.17218 2.5,0.10493 9.89,0.35066 v 3.95495 l -0.04,0.63763 -0.04,0.55692 -0.08,0.59908 -0.04,0.52194 -0.12,0.5641 -0.07,0.48338 -0.12,0.49415 -0.31,0.91385 -0.32,0.83404 -0.19,0.38563 -0.2,0.34976 -0.23,0.38563 -0.47,0.63763 -0.27,0.31478 -0.28,0.27712 -0.58,0.52912 -0.32,0.24124 -0.35,0.24214 -0.31,0.21703 -0.39,0.20358 -0.35,0.18205 -0.39,0.1677 -0.39,0.14349 -0.86,0.28071 -0.43,0.10493 -0.47,0.10851 -1.41,0.20716 -0.51,0.07 -0.5,0.0386 -0.55,0.035 h -1.95 l -0.9,-0.035 -1.72,-0.14349 -0.82,-0.10941 -1.64,-0.27622 -0.82,-0.17219 -0.78,-0.17847 -0.78,-0.24124 -0.75,-0.21703 -0.78,-0.24214 -0.74,-0.27711 -0.74,-0.25201 -0.74,-0.27622 -0.71,-0.2807 -0.74,-0.31209 -0.74,-0.27981 -1.41,-0.63405 -3.44,6.5898 0.79,0.38473 0.82,0.35065 0.86,0.38563 0.86,0.31479 0.85,0.35065 0.9,0.31119 0.94,0.31568 0.94,0.27712 0.94,0.32196 0.97,0.24483 0.98,0.27711 0.98,0.21344 1.01,0.20717 1.02,0.17129 2.03,0.28698 1.05,0.0986 1.06,0.035 1.05,0.0735 h 2.15 l 1.05,-0.0386 1.02,-0.07 1.95,-0.13363 0.94,-0.10851 0.9,-0.14349 0.86,-0.13632 0.86,-0.17846 0.78,-0.20717 0.82,-0.21344 0.74,-0.20716 0.74,-0.24125 0.71,-0.28787 1.33,-0.62688 0.62,-0.34975 0.59,-0.38563 0.54,-0.38563 0.51,-0.4233 0.55,-0.45558 0.47,-0.44841 0.47,-0.49414 0.42,-0.49415 0.4,-0.51836 0.39,-0.56768 0.35,-0.58831 0.31,-0.60266 0.31,-0.62687 0.28,-0.66544 0.23,-0.66275 0.23,-0.70041 0.2,-0.74256 0.31,-1.53445 0.12,-0.8439 0.08,-0.84121 0.08,-0.87888 0.04,-0.90758 V 80.900929 Z m -17.96,6.099056 0.66,0.03507 h 0.66 l 1.25,0.136585 0.59,0.07004 0.62,0.108604 0.59,0.108604 0.59,0.133088 0.54,0.178735 0.59,0.14358 1.09,0.413431 1.53,0.735657 0.46,0.28725 0.47,0.31523 0.43,0.311822 0.86,0.700681 0.78,0.770633 0.36,0.420426 0.35,0.4589 0.31,0.455403 0.31,0.48697 0.55,0.984343 0.27,0.557012 0.24,0.52903 0.19,0.592346 0.24,0.591898 0.15,0.599072 0.16,0.665436 0.12,0.626873 0.11,0.672611 0.08,0.700412 0.08,0.736283 0.04,0.73539 v 5.49657 l -7.7,-0.35065 -1.87,-0.0735 -0.86,-0.07 -0.86,-0.0978 -0.82,-0.0735 -0.82,-0.10492 -0.74,-0.10941 -0.75,-0.13273 -0.7,-0.14349 -0.66,-0.13632 -0.67,-0.17936 -0.62,-0.17847 -0.59,-0.17129 -0.54,-0.17936 -0.55,-0.20627 -1.02,-0.49414 -0.43,-0.24125 -0.47,-0.24214 -0.78,-0.56409 -0.35,-0.27981 -0.94,-0.94973 -0.27,-0.34975 -0.47,-0.70131 -0.39,-0.770362 -0.15,-0.38563 -0.12,-0.384733 -0.16,-0.420606 -0.12,-0.413432 -0.07,-0.455581 -0.08,-0.424194 -0.08,-0.454684 -0.04,-0.459169 v -0.483383 l -0.04,-0.494145 0.04,-0.879327 0.08,-0.805698 0.12,-0.763727 0.19,-0.707586 0.24,-0.700681 0.27,-0.591987 0.35,-0.592077 0.39,-0.528941 0.43,-0.493966 0.47,-0.455402 0.55,-0.385361 0.58,-0.350296 0.63,-0.31532 0.62,-0.241691 0.67,-0.241781 0.7,-0.178646 0.74,-0.14358 0.78,-0.09811 0.78,-0.07354 z"
         style="fill:#000000;fill-opacity:1;fill-rule:evenodd;stroke:none;stroke-width:0.94700283"
         id="path206"
         inkscape:connector-curvature="0" /><path
         d="m 2755.74,133.77092 h 10.16 l 11.52,-29.49713 0.16,-0.38473 0.15,-0.42419 0.32,-0.77037 0.11,-0.4206 0.16,-0.38563 1.25,-3.363055 0.12,-0.423297 0.15,-0.420605 0.16,-0.448408 0.23,-0.841212 0.16,-0.423296 0.12,-0.420695 0.15,-0.423835 0.24,-0.840763 0.12,-0.385362 0.23,-0.833768 0.23,-0.770722 0.08,-0.423835 0.08,-0.385361 0.12,-0.385361 0.15,-0.770722 0.08,-0.350296 0.04,-0.350295 0.08,-0.385362 0.04,-0.350295 0.08,-0.346888 0.04,-0.31523 h 0.31 l 0.08,0.241691 0.04,0.241692 0.07,0.322315 0.08,0.280254 0.08,0.311823 0.08,0.350295 0.11,0.350296 0.08,0.385361 0.24,0.770722 0.23,0.844261 0.16,0.420337 0.12,0.448407 0.11,0.420427 0.12,0.4589 0.16,0.420426 0.11,0.4589 0.16,0.448408 0.12,0.455761 0.15,0.493247 0.16,0.459169 0.16,0.483383 0.15,0.459169 0.12,0.455582 0.94,2.735287 0.31,0.83403 0.12,0.42061 0.15,0.38563 0.12,0.38473 0.16,0.35066 0.23,0.70041 0.12,0.32285 10.7,29.42628 h 10.12 l -23.32,-59.764251 -0.63,-1.544852 -0.31,-0.732249 -0.63,-1.401273 -0.35,-0.707586 -0.31,-0.665616 -0.35,-0.662118 -1.06,-1.89174 -0.35,-0.591987 -1.17,-1.685025 -0.39,-0.522035 -0.86,-0.987841 -0.43,-0.455403 -0.47,-0.448407 -0.47,-0.420426 -0.5,-0.385361 -0.47,-0.385362 -0.55,-0.350295 -0.51,-0.350296 -0.58,-0.31532 -0.55,-0.322225 -0.59,-0.276757 -0.58,-0.241781 -1.25,-0.493876 -0.67,-0.206716 -0.7,-0.178645 -1.41,-0.280255 -1.56,-0.213711 -0.78,-0.02807 -0.82,-0.03498 -0.86,-0.03506 h -0.55 l -0.54,0.03506 h -0.51 l -0.51,0.03498 h -0.47 l -0.5,0.02807 -0.43,0.03498 -0.47,0.07363 -0.86,0.07004 -0.39,0.07354 -0.39,0.03506 -0.39,0.07004 -0.36,0.02807 -0.35,0.07004 -0.35,0.03856 -0.31,0.07004 -0.31,0.03506 -0.63,0.136585 v 6.978292 l 0.24,-0.03847 0.23,-0.07004 1.09,-0.14367 0.94,-0.09811 1.76,-0.182143 h 0.35 l 0.35,-0.03506 h 1.13 l 0.36,-0.03498 0.5,0.03498 h 0.51 l 0.94,0.07363 0.47,0.07004 0.43,0.03506 0.43,0.108515 0.39,0.06313 1.17,0.322226 0.35,0.136674 0.35,0.105107 0.35,0.17165 0.32,0.14358 0.35,0.178646 0.31,0.17174 0.27,0.178645 0.32,0.17165 0.27,0.213711 0.27,0.241692 0.28,0.206715 0.27,0.252184 0.47,0.483473 0.23,0.28725 0.24,0.241691 0.19,0.31532 0.24,0.276757 0.78,1.264598 0.19,0.350385 0.16,0.350296 0.2,0.346798 0.15,0.350296 0.2,0.385361 0.31,0.770722 3.09,7.713949 z"
         style="fill:#000000;fill-opacity:1;fill-rule:evenodd;stroke:none;stroke-width:0.94700283"
         id="path208"
         inkscape:connector-curvature="0" /><path
         d="m 5184.4617,2253.5859 h 549.379 v 553.6394 h -549.379 z"
         style="fill:#ffffff;fill-opacity:1;fill-rule:evenodd;stroke:none;stroke-width:0.94700283"
         id="path218"
         inkscape:connector-curvature="0" /><path
         d="m 5210.62,2478.2391 h 172.809 v 154.9776 H 5210.62 Z"
         style="fill:#f2f2f2;fill-opacity:1;fill-rule:evenodd;stroke:none;stroke-width:0.94700283"
         id="path232"
         inkscape:connector-curvature="0" /><path
         d="m 5210.62,2478.2391 h 172.809 v 154.9776 H 5210.62 Z"
         style="fill:none;stroke:#ffffff;stroke-width:10.10433102;stroke-linecap:round;stroke-linejoin:round;stroke-miterlimit:10;stroke-dasharray:none;stroke-opacity:1"
         id="path234"
         inkscape:connector-curvature="0" /><path
         d="m 5227.93,2555.688 h 138.24"
         style="fill:none;stroke:#f8766d;stroke-width:10.10433102;stroke-linecap:butt;stroke-linejoin:round;stroke-miterlimit:10;stroke-dasharray:none;stroke-opacity:1"
         id="path236"
         inkscape:connector-curvature="0" /><path
         d="m 5227.93,2555.688 h 138.24"
         style="fill:none;stroke:#f8766d;stroke-width:10.10433102;stroke-linecap:butt;stroke-linejoin:round;stroke-miterlimit:10;stroke-dasharray:none;stroke-opacity:1"
         id="path238"
         inkscape:connector-curvature="0" /><path
         d="m 5210.62,2323.2607 h 172.809 v 154.9811 H 5210.62 Z"
         style="fill:#f2f2f2;fill-opacity:1;fill-rule:evenodd;stroke:none;stroke-width:0.94700283"
         id="path240"
         inkscape:connector-curvature="0" /><path
         d="m 5210.62,2323.2607 h 172.809 v 154.9811 H 5210.62 Z"
         style="fill:none;stroke:#ffffff;stroke-width:10.10433102;stroke-linecap:round;stroke-linejoin:round;stroke-miterlimit:10;stroke-dasharray:none;stroke-opacity:1"
         id="path242"
         inkscape:connector-curvature="0" /><path
         d="m 5227.93,2400.7454 h 138.24"
         style="fill:none;stroke:#00bfc4;stroke-width:10.10433102;stroke-linecap:butt;stroke-linejoin:round;stroke-miterlimit:10;stroke-dasharray:none;stroke-opacity:1"
         id="path244"
         inkscape:connector-curvature="0" /><path
         d="m 5227.93,2400.7454 h 138.24"
         style="fill:none;stroke:#00bfc4;stroke-width:10.10433102;stroke-linecap:butt;stroke-linejoin:round;stroke-miterlimit:10;stroke-dasharray:none;stroke-opacity:1"
         id="path246"
         inkscape:connector-curvature="0" /><path
         d="m 5498.09,2555.7956 v -1.2914 l -0.16,-2.529 -0.12,-1.2196 -0.15,-1.1928 -0.2,-1.1928 -0.23,-1.121 -0.28,-1.1569 -0.62,-2.1703 -0.35,-1.0492 -0.39,-1.0493 -0.43,-0.9865 -0.47,-0.9417 -0.51,-0.9506 -0.55,-0.9058 -0.54,-0.8789 -0.63,-0.843 -0.62,-0.8071 -0.67,-0.7713 -0.7,-0.7353 -0.74,-0.6996 -0.78,-0.6995 -0.79,-0.6277 -1.71,-1.1928 -0.9,-0.5291 -0.94,-0.4843 -0.98,-0.4933 -1.01,-0.4215 -1.02,-0.3856 -1.09,-0.3856 -1.1,-0.3139 -1.09,-0.2421 -1.17,-0.2511 -1.17,-0.1704 -1.25,-0.1435 -1.25,-0.099 -1.29,-0.072 -1.29,-0.036 -1.41,0.036 -1.33,0.072 -1.32,0.099 -1.25,0.1435 -1.25,0.1704 -2.35,0.4932 -1.13,0.3139 -1.09,0.3856 -1.06,0.3856 -0.98,0.4215 -0.97,0.4933 -0.94,0.4843 -0.9,0.5291 -1.72,1.1928 -0.78,0.6277 -0.78,0.6995 -0.74,0.6996 -0.67,0.7353 -0.66,0.7713 -0.62,0.8071 -0.59,0.843 -0.55,0.8789 -0.51,0.9058 -0.93,1.8923 -0.39,0.9865 -0.39,1.0493 -0.36,1.0492 -0.31,1.0852 -0.27,1.121 -0.24,1.121 -0.23,1.1569 -0.16,1.1928 -0.15,1.2196 -0.12,1.2287 -0.08,1.2286 -0.08,2.5918 0.04,1.2914 0.04,1.2645 0.08,1.2645 0.12,1.2197 0.31,2.3855 0.23,1.121 0.24,1.1569 0.27,1.0852 0.31,1.0851 0.36,1.0493 0.39,1.0224 0.39,0.9775 0.47,0.9775 0.46,0.9148 0.51,0.9057 0.59,0.8789 0.58,0.8072 0.63,0.8071 0.66,0.7712 1.41,1.4708 0.78,0.6637 0.78,0.6277 0.86,0.6009 0.86,0.556 0.9,0.5291 0.98,0.4933 0.97,0.4484 2.03,0.843 1.1,0.3498 1.13,0.3139 1.17,0.2869 1.17,0.2063 1.25,0.1794 1.29,0.1704 1.29,0.1076 2.74,0.072 1.32,-0.036 1.25,-0.036 1.25,-0.1076 1.25,-0.1704 1.18,-0.1794 1.13,-0.2063 1.13,-0.2869 1.1,-0.3139 1.05,-0.3498 2.03,-0.843 0.94,-0.4484 0.94,-0.4933 0.9,-0.5291 0.85,-0.556 0.86,-0.6367 0.79,-0.6278 0.78,-0.6636 0.74,-0.6996 0.7,-0.7712 0.67,-0.7713 1.25,-1.6143 0.54,-0.8699 0.55,-0.9147 0.51,-0.9148 0.47,-0.9775 0.43,-0.9775 0.39,-1.0224 0.35,-1.0493 0.31,-1.0851 0.31,-1.121 0.28,-1.121 0.23,-1.1569 0.2,-1.1569 0.15,-1.2197 0.12,-1.2286 0.16,-2.5201 z m -46.02,0 v -1.0492 l 0.08,-2.0358 0.08,-0.9775 0.11,-0.9775 0.12,-0.9148 0.16,-0.9417 0.15,-0.8788 0.2,-0.9148 0.47,-1.677 0.23,-0.8072 0.28,-0.7712 0.31,-0.7354 0.35,-0.7354 0.7,-1.399 0.39,-0.6368 0.86,-1.2555 0.51,-0.565 0.47,-0.556 1.09,-0.9865 0.59,-0.4843 0.58,-0.4215 0.63,-0.4215 0.62,-0.3856 0.67,-0.3498 0.7,-0.3139 0.74,-0.3139 0.75,-0.2511 0.78,-0.2421 1.64,-0.3498 0.86,-0.1435 1.79,-0.2062 0.94,-0.036 h 1.92 l 0.93,0.036 0.94,0.1076 0.86,0.099 0.86,0.1435 0.86,0.1704 0.78,0.1794 0.78,0.2421 0.74,0.2511 1.41,0.6278 0.7,0.3498 0.63,0.3856 0.62,0.4215 0.59,0.4215 0.58,0.4843 0.55,0.4932 0.51,0.4933 0.51,0.556 0.47,0.565 1.29,1.8923 0.7,1.399 0.35,0.7354 0.27,0.7354 0.32,0.7712 0.23,0.8072 0.23,0.843 0.2,0.834 0.2,0.9148 0.15,0.8788 0.12,0.9417 0.12,0.9148 0.11,0.9775 0.08,0.9775 0.08,2.0358 v 2.0985 l -0.08,2.0358 -0.08,0.9775 -0.11,0.9865 -0.12,0.9058 -0.12,0.9506 -0.15,0.8699 -0.2,0.8789 -0.2,0.843 -0.23,0.834 -0.23,0.8072 -0.28,0.7712 -0.62,1.4708 -0.35,0.6995 -0.39,0.6726 -0.4,0.6278 -0.43,0.6278 -0.42,0.6008 -0.47,0.5561 -0.51,0.565 -0.51,0.4842 -0.55,0.4933 -0.54,0.4574 -0.59,0.4573 -0.62,0.3857 -0.67,0.3856 -0.66,0.3498 -0.67,0.3138 -0.74,0.3139 -0.74,0.278 -1.56,0.4215 -0.82,0.1794 -0.86,0.1345 -1.8,0.2153 -0.94,0.036 H 5470 l -0.94,-0.036 -1.79,-0.2153 -0.86,-0.1345 -0.82,-0.1794 -0.82,-0.2062 -0.79,-0.2153 -0.74,-0.278 -0.74,-0.3139 -0.7,-0.3138 -0.67,-0.3498 -0.66,-0.3856 -0.63,-0.3857 -1.17,-0.9147 -0.55,-0.4933 -0.5,-0.4842 -0.51,-0.565 -0.47,-0.5561 -0.47,-0.6008 -0.43,-0.6278 -0.39,-0.6278 -0.39,-0.6726 -0.35,-0.6995 -0.35,-0.7354 -0.31,-0.7354 -0.28,-0.7712 -0.23,-0.8072 -0.47,-1.677 -0.2,-0.8789 -0.15,-0.8699 -0.16,-0.9506 -0.12,-0.9058 -0.11,-0.9865 -0.08,-0.9775 -0.08,-2.0358 z"
         style="fill:#000000;fill-opacity:1;fill-rule:evenodd;stroke:none;stroke-width:0.94700283"
         id="path248"
         inkscape:connector-curvature="0" /><path
         d="m 5538.83,2527.5281 h -31.76 v 4.8338 l 23.05,32.1956 h -21.64 v 5.2912 h 29.57 v -5.6051 l -22.5,-31.4243 h 23.28 z"
         style="fill:#000000;fill-opacity:1;fill-rule:evenodd;stroke:none;stroke-width:0.94700283"
         id="path250"
         inkscape:connector-curvature="0" /><path
         d="m 5588.28,2548.7557 v -1.0134 l -0.08,-1.0224 -0.04,-1.0134 -0.11,-0.9775 -0.12,-0.9507 -0.2,-0.9057 -0.15,-0.9148 -0.24,-0.9058 -0.23,-0.843 -0.27,-0.843 -0.32,-0.8071 -0.31,-0.7713 -0.35,-0.7712 -0.78,-1.3991 -0.43,-0.6995 -0.43,-0.6278 -0.51,-0.6367 -1.01,-1.1838 -0.55,-0.5291 -0.59,-0.5291 -0.58,-0.4843 -0.59,-0.4574 -0.66,-0.4574 -1.33,-0.7712 -0.7,-0.3857 -1.49,-0.6277 -0.78,-0.278 -0.78,-0.2511 -1.64,-0.4215 -1.72,-0.2781 -0.9,-0.1076 -0.9,-0.063 -1.87,-0.072 -0.9,0.036 -0.86,0.036 -0.86,0.063 -0.82,0.1076 -1.64,0.2781 -1.56,0.4215 -0.78,0.2511 -0.75,0.278 -0.74,0.3139 -0.7,0.3138 -1.41,0.7713 -0.66,0.3856 -1.25,0.9148 -0.59,0.4843 -0.58,0.5291 -0.55,0.5291 -0.55,0.5919 -0.51,0.5919 -0.93,1.2645 -0.86,1.399 -0.39,0.6996 -0.71,1.5425 -0.31,0.8071 -0.55,1.686 -0.23,0.9058 -0.2,0.9148 -0.15,0.9057 -0.16,0.9507 -0.08,0.9775 -0.07,1.0134 -0.08,2.0358 0.04,1.0492 0.04,1.0134 0.15,1.9641 0.12,0.9506 0.16,0.9058 0.19,0.8788 0.23,0.8789 0.24,0.8341 0.27,0.843 0.28,0.8071 0.35,0.7712 0.7,1.4708 0.43,0.6995 0.86,1.3273 0.47,0.6009 0.51,0.5919 0.5,0.565 0.55,0.556 0.59,0.5291 0.58,0.4933 1.25,0.9058 1.33,0.7712 0.7,0.3856 0.75,0.3139 0.74,0.278 0.78,0.287 1.64,0.4843 0.82,0.1794 0.86,0.1704 0.86,0.1076 0.9,0.1076 0.94,0.1076 0.89,0.027 h 1.84 l 0.86,-0.027 0.86,-0.1076 1.64,-0.2152 0.82,-0.1704 0.78,-0.1794 1.56,-0.4843 1.49,-0.565 0.74,-0.3139 0.66,-0.3856 0.71,-0.3856 0.66,-0.3856 0.63,-0.4574 0.58,-0.4484 0.63,-0.4933 0.54,-0.5291 1.1,-1.121 1.01,-1.1928 0.47,-0.6636 0.43,-0.6637 0.39,-0.6995 0.78,-1.4708 0.32,-0.7712 0.31,-0.8071 0.31,-0.843 0.27,-0.8341 0.24,-0.8789 0.19,-0.8788 0.16,-0.9058 0.16,-0.9506 0.15,-1.9641 0.08,-1.0134 z m -33.01,0 0.04,-1.5426 0.08,-1.5066 0.16,-1.399 0.19,-1.3363 0.28,-1.2555 0.31,-1.1928 0.39,-1.0851 0.43,-1.0134 0.51,-0.9507 0.54,-0.843 0.63,-0.7712 0.7,-0.6996 0.78,-0.5918 0.86,-0.5292 0.9,-0.4484 1.02,-0.3587 1.05,-0.278 1.13,-0.2063 1.21,-0.1076 1.29,-0.072 1.29,0.072 1.21,0.1076 1.14,0.2063 1.05,0.278 1.02,0.3587 0.9,0.4484 0.82,0.5292 0.78,0.5918 0.7,0.6996 0.59,0.7712 0.58,0.843 0.47,0.9507 0.43,1.0134 0.39,1.0851 0.31,1.1928 0.28,1.2555 0.19,1.3363 0.16,1.399 0.08,1.5066 0.04,1.5426 -0.04,1.5783 -0.08,1.5067 -0.16,1.399 -0.19,1.3273 -0.28,1.2286 -0.31,1.1569 -0.39,1.0852 -0.43,1.0134 -0.51,0.9147 -0.58,0.843 -0.63,0.7354 -0.66,0.6995 -0.78,0.5919 -0.86,0.5292 -0.9,0.4215 -1.02,0.3856 -1.05,0.278 -1.13,0.2063 -1.22,0.1076 -1.28,0.036 -1.29,-0.036 -1.21,-0.1076 -1.14,-0.2063 -1.05,-0.278 -1.02,-0.3856 -0.9,-0.4215 -0.86,-0.5292 -0.74,-0.5919 -0.7,-0.6995 -0.63,-0.7354 -0.54,-0.843 -0.51,-0.9147 -0.43,-1.0134 -0.35,-1.0852 -0.31,-1.1569 -0.28,-1.2286 -0.19,-1.3273 -0.16,-1.399 -0.08,-1.5067 z"
         style="fill:#000000;fill-opacity:1;fill-rule:evenodd;stroke:none;stroke-width:0.94700283"
         id="path252"
         inkscape:connector-curvature="0" /><path
         d="m 5630.08,2527.5281 v 28.2317 l -0.08,0.9147 -0.12,0.8699 -0.15,0.843 -0.2,0.7713 -0.27,0.7354 -0.28,0.6636 -0.35,0.6368 -0.39,0.5919 -0.43,0.5291 -0.47,0.4484 -0.54,0.4215 -0.55,0.3856 -0.63,0.3139 -0.7,0.287 -0.7,0.2421 -0.78,0.1794 -0.86,0.099 -0.86,0.072 -0.94,0.036 h -0.7 l -0.67,-0.036 -0.62,-0.036 -0.63,-0.072 -1.17,-0.2063 -1.09,-0.278 -0.51,-0.1794 -0.94,-0.4215 -0.43,-0.2062 -0.43,-0.2422 -0.43,-0.287 -0.39,-0.278 -0.7,-0.6277 -0.35,-0.3498 -0.31,-0.3498 -0.32,-0.3856 -0.54,-0.843 -0.24,-0.4215 -0.23,-0.4574 -0.59,-1.4707 -0.15,-0.5202 -0.32,-1.121 -0.11,-0.565 -0.08,-0.5919 -0.12,-0.6367 -0.08,-0.6278 -0.04,-0.6278 -0.07,-0.6636 -0.04,-0.7085 -0.04,-0.6637 v -23.3978 h -7.82 v 42.3206 h 6.33 l 1.14,-5.7127 h 0.43 l 0.23,0.3498 0.2,0.3139 0.23,0.3138 0.27,0.2781 0.24,0.2869 0.27,0.2781 0.24,0.278 0.27,0.278 0.31,0.2511 0.27,0.2421 0.32,0.2422 0.31,0.2152 0.31,0.2421 0.94,0.6368 1.76,0.8699 1.05,0.4215 0.78,0.2152 0.36,0.099 0.78,0.2152 0.78,0.1345 0.43,0.072 0.39,0.072 0.78,0.072 0.43,0.036 0.39,0.036 0.43,0.027 h 0.82 l 1.52,-0.027 1.45,-0.1076 1.37,-0.1794 1.32,-0.278 1.21,-0.3139 1.14,-0.4215 1.05,-0.4932 1.02,-0.5202 0.9,-0.6367 0.82,-0.6995 0.78,-0.8072 0.66,-0.834 0.59,-0.9506 0.54,-1.0493 0.43,-1.1569 0.36,-1.1927 0.27,-1.3273 0.19,-1.3991 0.12,-1.4707 0.04,-1.5784 v -27.6398 z"
         style="fill:#000000;fill-opacity:1;fill-rule:evenodd;stroke:none;stroke-width:0.94700283"
         id="path254"
         inkscape:connector-curvature="0" /><path
         d="m 5473.01,2428.9144 h 8.44 l 9.84,-33.0028 0.16,-0.4215 0.11,-0.4215 0.12,-0.4574 0.23,-0.834 0.16,-0.4574 0.23,-0.843 0.12,-0.4574 0.24,-0.834 0.15,-0.4215 0.12,-0.4574 0.47,-1.677 0.08,-0.3857 0.23,-0.843 0.12,-0.3856 0.08,-0.3856 0.11,-0.4215 0.12,-0.3857 0.08,-0.3856 0.08,-0.3498 0.11,-0.3856 0.08,-0.3856 0.08,-0.3498 0.08,-0.3856 0.23,-1.0493 0.08,-0.3139 0.08,-0.3497 0.08,-0.3229 0.04,-0.3139 0.07,-0.3139 0.04,-0.3138 0.08,-0.278 0.04,0.278 v 0.3138 l 0.04,0.3139 0.04,0.287 0.08,0.3498 0.07,0.6277 0.04,0.3498 0.04,0.3139 0.08,0.3497 0.08,0.6996 0.08,0.3497 0.04,0.3498 0.07,0.3856 0.04,0.3498 0.08,0.3856 0.08,0.3587 0.04,0.3767 0.23,1.1569 0.04,0.3856 0.47,2.3138 0.08,0.4215 0.16,0.7712 0.07,0.4215 0.12,0.3857 0.16,0.7712 0.11,0.3857 0.16,0.7712 0.12,0.3857 8.59,33.9803 h 8.56 l -15.78,-56.3379 h -8.09 l -10.9,36.1595 -0.35,1.1569 -0.12,0.4126 -0.12,0.3856 -0.23,0.843 -0.12,0.3856 -0.35,1.2645 -0.12,0.3857 -0.07,0.4215 -0.24,0.7712 -0.08,0.4126 -0.11,0.3587 -0.08,0.3766 -0.12,0.3857 -0.08,0.3497 -0.23,0.843 -0.08,0.4215 -0.12,0.4215 -0.07,0.4215 -0.12,0.4215 -0.08,0.3857 -0.12,0.4215 -0.08,0.3856 -0.11,0.4125 -0.08,-0.3856 -0.08,-0.4125 -0.12,-0.3856 -0.07,-0.4216 -0.12,-0.3856 -0.08,-0.4215 -0.12,-0.4215 -0.15,-0.843 -0.12,-0.4215 -0.08,-0.3498 -0.08,-0.3856 -0.11,-0.3856 -0.08,-0.3856 -0.12,-0.3857 -0.08,-0.3856 -0.11,-0.4125 -0.08,-0.4215 -0.35,-1.2645 -0.08,-0.4574 -0.94,-3.3631 -10.39,-35.9084 h -8.09 l -16.56,56.3379 h 8.44 l 9.61,-34.2673 0.08,-0.3498 0.11,-0.3497 0.08,-0.3857 0.12,-0.3497 0.08,-0.3857 0.11,-0.3497 0.16,-0.7713 0.12,-0.3856 0.08,-0.3856 0.07,-0.3498 0.24,-1.1569 0.08,-0.3497 0.31,-1.5426 0.08,-0.3497 0.15,-0.7713 0.04,-0.3497 0.08,-0.3857 0.08,-0.3497 0.08,-0.3857 0.08,-0.3497 0.03,-0.3856 0.08,-0.3498 0.04,-0.3498 0.08,-0.3497 0.04,-0.3139 0.08,-0.3498 0.07,-0.6277 0.08,-0.3498 0.04,-0.287 0.08,-0.6277 0.08,-0.278 0.04,0.278 0.04,0.3138 0.04,0.2781 0.03,0.3228 0.08,0.3498 0.04,0.3139 0.04,0.3497 0.08,0.3498 0.04,0.3856 0.08,0.3498 0.07,0.3856 0.04,0.3856 0.16,0.7713 0.08,0.4215 0.08,0.3856 0.07,0.4215 0.08,0.3767 0.08,0.4215 0.12,0.4215 0.15,0.843 0.08,0.3856 0.08,0.4215 0.12,0.4215 0.15,0.8341 0.12,0.4215 0.08,0.4573 0.12,0.4215 0.07,0.4215 0.24,0.8431 0.08,0.4125 0.11,0.3856 0.12,0.4215 0.12,0.3856 0.08,0.3857 0.23,0.7712 z"
         style="fill:#000000;fill-opacity:1;fill-rule:evenodd;stroke:none;stroke-width:0.94700283"
         id="path256"
         inkscape:connector-curvature="0" /><path
         d="m 5531.29,2372.5765 h -7.8086 v 42.3219 h 7.8086 z m -8.4,53.7461 v 0.4484 l 0.04,0.4215 0.08,0.4215 0.08,0.3497 0.11,0.3498 0.32,0.6367 0.19,0.278 0.2,0.2422 0.54,0.4215 0.28,0.1793 0.31,0.1346 0.27,0.1435 0.35,0.1076 0.32,0.099 0.35,0.072 0.35,0.036 0.39,0.036 0.35,0.036 h 0.2 l 0.19,-0.036 h 0.2 l 0.15,-0.036 h 0.2 l 0.16,-0.036 0.19,-0.036 0.16,-0.036 0.15,-0.072 0.16,-0.027 0.2,-0.072 0.15,-0.036 0.47,-0.2153 0.12,-0.063 0.15,-0.1076 0.12,-0.072 0.16,-0.1076 0.23,-0.2063 0.12,-0.1435 0.12,-0.099 0.11,-0.1435 0.08,-0.1435 0.12,-0.1345 0.15,-0.287 0.16,-0.3498 0.08,-0.1345 0.08,-0.1794 0.04,-0.1704 0.04,-0.2152 0.07,-0.1704 v -0.2152 l 0.08,-0.4215 v -0.8699 l -0.04,-0.4215 -0.08,-0.3857 -0.11,-0.3856 -0.12,-0.3498 -0.16,-0.3138 -0.15,-0.287 -0.24,-0.278 -0.19,-0.2781 -0.82,-0.6277 -0.94,-0.4215 -0.31,-0.072 -0.35,-0.1076 -0.71,-0.072 h -0.74 l -0.39,0.036 -0.35,0.036 -0.35,0.1076 -0.32,0.072 -0.35,0.1345 -0.27,0.1435 -0.31,0.1435 -0.82,0.6277 -0.2,0.2422 -0.19,0.287 -0.32,0.6277 -0.11,0.3498 -0.08,0.3498 -0.08,0.4215 -0.04,0.4215 z"
         style="fill:#000000;fill-opacity:1;fill-rule:evenodd;stroke:none;stroke-width:0.94700283"
         id="path258"
         inkscape:connector-curvature="0" /><path
         d="m 5572.85,2372.5765 -1.6,5.8562 h -0.31 l -0.32,-0.3498 -0.27,-0.3139 -0.27,-0.3497 -0.31,-0.3229 -0.28,-0.278 -0.27,-0.3139 -0.27,-0.278 -0.32,-0.287 -0.27,-0.278 -0.55,-0.4843 -0.31,-0.2152 -0.27,-0.2421 -0.94,-0.6368 -0.63,-0.3497 -0.35,-0.1704 -0.31,-0.1794 -0.35,-0.1704 -1.06,-0.4215 -0.39,-0.1076 -0.35,-0.1345 -0.39,-0.1076 -0.39,-0.072 -0.43,-0.1076 -0.39,-0.072 -1.29,-0.2062 -0.47,-0.036 -0.47,-0.072 -0.47,-0.036 h -0.5 l -0.51,-0.036 h -1.64 l -1.17,0.072 -0.55,0.036 -0.55,0.072 -0.54,0.1076 -0.51,0.072 -0.55,0.1346 -1.01,0.278 -0.47,0.1435 -0.51,0.1793 -0.47,0.1704 -0.86,0.4215 -0.86,0.4933 -0.78,0.556 -0.39,0.3139 -0.35,0.3228 -0.35,0.3498 -0.63,0.6995 -0.27,0.3856 -0.55,0.8341 -0.23,0.4215 -0.24,0.4574 -0.19,0.4573 -0.39,0.9776 -0.16,0.5291 -0.12,0.5201 -0.23,1.121 -0.08,0.6009 -0.04,0.5919 -0.04,0.6368 v 0.6277 l 0.04,1.2556 0.16,1.1569 0.27,1.121 0.31,1.0582 0.47,1.0134 0.55,0.9417 0.62,0.8788 0.75,0.843 0.86,0.7354 0.93,0.7354 1.02,0.6278 1.17,0.6009 1.25,0.5201 1.37,0.4574 1.44,0.3856 1.57,0.3498 1.68,0.278 1.75,0.2152 1.88,0.1704 1.99,0.072 7.89,0.278 v 3.641 l -0.04,0.4933 -0.04,0.4574 -0.08,0.4215 -0.07,0.4573 -0.16,0.7713 -0.12,0.3767 -0.11,0.3587 -0.16,0.3497 -0.12,0.3139 -0.15,0.3139 -0.16,0.278 -0.19,0.3139 -0.16,0.2511 -0.2,0.278 -0.23,0.2422 -0.2,0.2152 -0.23,0.2063 -0.27,0.2152 -0.24,0.2063 -0.82,0.5291 -0.62,0.278 -0.63,0.2063 -0.7,0.2152 -0.35,0.072 -0.78,0.1345 -1.18,0.1076 -0.43,0.036 h -1.6 l -0.7,-0.036 -0.66,-0.036 -0.71,-0.072 -0.66,-0.072 -0.67,-0.099 -0.62,-0.1435 -0.67,-0.1076 -1.87,-0.5202 -1.17,-0.4215 -0.63,-0.2152 -0.58,-0.2063 -0.59,-0.2421 -0.59,-0.2153 -0.54,-0.2421 -0.59,-0.2511 -0.58,-0.278 -2.74,5.2912 0.63,0.3139 1.32,0.565 1.41,0.556 0.7,0.2511 1.49,0.4843 0.78,0.2152 0.74,0.2422 0.82,0.2062 0.78,0.1794 0.78,0.1435 1.65,0.278 0.82,0.1076 0.82,0.063 2.57,0.1076 0.86,-0.036 h 0.82 l 0.82,-0.072 0.79,-0.027 0.78,-0.072 1.48,-0.2152 0.67,-0.099 0.7,-0.1435 0.62,-0.1794 0.63,-0.1345 0.62,-0.1794 0.59,-0.2063 0.55,-0.2511 0.54,-0.2062 1.02,-0.5561 0.47,-0.2869 0.47,-0.3139 0.39,-0.3498 0.43,-0.3497 0.39,-0.3857 0.7,-0.7712 0.31,-0.4215 0.32,-0.4574 0.27,-0.4484 0.27,-0.4933 0.24,-0.4932 0.23,-0.5202 0.2,-0.565 0.15,-0.556 0.31,-1.1927 0.12,-0.6278 0.16,-1.3363 0.04,-0.6995 0.04,-0.7354 v -29.7114 z m -14.33,4.8697 0.5,0.036 h 0.51 l 0.51,0.036 0.51,0.072 0.47,0.072 0.5,0.072 0.94,0.2062 0.43,0.1076 0.47,0.1346 1.29,0.5291 0.39,0.1793 0.39,0.2063 0.39,0.2422 0.35,0.2511 0.39,0.2421 0.32,0.278 0.35,0.287 0.62,0.6278 0.82,1.0492 0.47,0.7713 0.24,0.4215 0.19,0.4215 0.2,0.4574 0.15,0.4484 0.2,0.4932 0.23,0.9776 0.12,0.5291 0.08,0.556 0.07,0.5291 0.04,0.5919 0.04,0.565 v 4.4123 l -6.13,-0.2421 -0.78,-0.036 -0.74,-0.072 -0.71,-0.036 -1.99,-0.2063 -1.76,-0.3138 -0.5,-0.1077 -0.55,-0.1434 -0.94,-0.2781 -0.47,-0.1793 -0.43,-0.1345 -0.39,-0.2153 -0.39,-0.1704 -0.39,-0.2152 -0.35,-0.2063 -0.63,-0.4215 -0.54,-0.4932 -0.47,-0.4843 -0.24,-0.287 -0.19,-0.278 -0.16,-0.278 -0.19,-0.3139 -0.12,-0.3139 -0.16,-0.3228 -0.11,-0.3139 -0.08,-0.3139 -0.12,-0.3498 -0.08,-0.3497 -0.07,-0.6995 -0.08,-0.7713 v -0.3856 l 0.08,-1.3273 0.11,-0.6367 0.12,-0.5561 0.2,-0.565 0.23,-0.4842 0.27,-0.4574 0.32,-0.4215 0.35,-0.3857 0.39,-0.3497 0.43,-0.3139 0.47,-0.287 0.47,-0.2421 0.5,-0.2422 0.55,-0.1793 0.55,-0.1345 0.58,-0.1077 0.63,-0.1076 z"
         style="fill:#000000;fill-opacity:1;fill-rule:evenodd;stroke:none;stroke-width:0.94700283"
         id="path260"
         inkscape:connector-curvature="0" /><path
         d="m 5607.23,2377.5538 h 0.97 l 0.2,0.036 h 0.35 l 0.2,0.036 h 0.19 l 0.2,0.036 h 0.19 l 0.2,0.036 h 0.19 l 0.2,0.036 h 0.15 l 0.39,0.063 h 0.16 l 0.2,0.036 0.15,0.036 h 0.2 l 0.31,0.072 0.2,0.036 h 0.15 l 0.16,0.036 0.11,0.036 0.47,0.1077 0.12,0.027 h 0.12 l 0.15,0.036 0.08,0.036 0.12,0.036 h 0.12 l 0.15,0.072 v -5.327 l -0.11,-0.036 -0.12,-0.063 -0.12,-0.036 -0.16,-0.036 -0.11,-0.072 -0.31,-0.072 -0.16,-0.072 -0.31,-0.072 -0.2,-0.063 -0.15,-0.036 -0.4,-0.072 -0.15,-0.036 -0.59,-0.1076 -0.23,-0.036 -0.59,-0.099 -0.23,-0.036 -0.2,-0.036 -0.23,-0.036 -0.2,-0.036 h -0.23 l -0.2,-0.036 -0.23,-0.036 h -0.24 l -0.19,-0.036 h -0.24 l -0.23,-0.036 h -0.43 l -0.23,-0.036 h -1.92 l -0.51,0.036 -0.5,0.072 -0.51,0.036 -0.47,0.072 -0.51,0.072 -0.94,0.2063 -0.43,0.1076 -0.46,0.1435 -0.43,0.1345 -0.86,0.3498 -0.39,0.2152 -0.39,0.2421 -0.36,0.2063 -0.39,0.287 -0.35,0.2421 -0.35,0.3139 -0.62,0.6367 -0.28,0.3498 -0.55,0.7623 -0.46,0.843 -0.24,0.4574 -0.23,0.4932 -0.2,0.4843 -0.15,0.5291 -0.16,0.565 -0.16,0.5919 -0.11,0.5919 -0.12,0.6367 -0.08,0.6637 -0.08,0.6995 -0.04,0.6995 -0.04,0.7354 v 25.326 h -6.64 v 3.121 l 6.64,3.0132 3.36,8.8606 h 4.54 v -9.7036 h 11.83 v -5.2912 h -11.83 v -25.2901 l 0.03,-0.6637 0.08,-0.6636 0.08,-0.6367 0.12,-0.5561 0.15,-0.565 0.16,-0.4842 0.2,-0.4933 0.23,-0.4215 0.55,-0.7713 0.31,-0.3138 0.39,-0.2781 0.39,-0.2511 0.43,-0.2062 0.47,-0.1794 0.47,-0.1345 0.54,-0.072 0.59,-0.072 z"
         style="fill:#000000;fill-opacity:1;fill-rule:evenodd;stroke:none;stroke-width:0.94700283"
         id="path262"
         inkscape:connector-curvature="0" /><path
         d="m 5643.2,2415.6684 0.24,-0.036 h 1.09 l 0.27,-0.036 h 0.28 l 0.31,-0.036 h 0.27 l 0.32,-0.027 h 0.31 l 0.31,-0.036 h 0.28 l 0.82,-0.1076 h 0.23 l 0.27,-0.036 0.24,-0.036 0.19,-0.036 -1.01,-6.475 -0.47,0.063 -0.27,0.036 -0.47,0.072 -0.28,0.036 h -0.23 l -0.28,0.036 -0.23,0.036 -0.27,0.036 h -0.24 l -0.23,0.036 -0.27,0.027 h -0.24 l -0.23,0.036 h -0.24 l -0.23,0.036 h -1.21 l -0.55,-0.036 -1.52,-0.2063 -0.47,-0.1076 -0.94,-0.278 -0.47,-0.1794 -0.47,-0.2062 -0.43,-0.1794 -0.43,-0.2421 -0.43,-0.2063 -1.17,-0.843 -0.7,-0.6278 -0.7,-0.7084 -0.32,-0.3767 -0.27,-0.3856 -0.31,-0.3857 -0.28,-0.4215 -0.23,-0.4215 -0.47,-0.9147 -0.23,-0.4843 -0.39,-0.9865 -0.16,-0.5202 -0.12,-0.5291 -0.15,-0.5291 -0.12,-0.556 -0.16,-1.121 -0.08,-0.5919 -0.04,-0.6009 v -0.5919 l -0.03,-0.6367 v -22.806 h -7.82 v 42.3206 h 6.37 l 0.94,-7.7753 h 0.35 l 0.23,0.3497 0.2,0.3139 0.23,0.3139 0.24,0.3497 0.19,0.3229 1.18,1.5694 0.27,0.287 0.23,0.3139 1.1,1.121 0.27,0.2422 0.31,0.2421 0.28,0.2511 0.31,0.2421 0.31,0.2153 0.31,0.2421 0.32,0.2063 0.35,0.2152 0.35,0.1704 0.31,0.1794 0.35,0.1704 0.39,0.1793 0.36,0.1704 0.78,0.287 0.78,0.2063 0.43,0.1076 0.39,0.072 0.47,0.072 0.43,0.063 0.47,0.036 h 0.46 z"
         style="fill:#000000;fill-opacity:1;fill-rule:evenodd;stroke:none;stroke-width:0.94700283"
         id="path264"
         inkscape:connector-curvature="0" /><flowRoot
         xml:space="preserve"
         id="flowRoot1071"
         style="font-style:normal;font-weight:normal;font-size:40px;line-height:1.25;font-family:sans-serif;letter-spacing:0px;word-spacing:0px;fill:#000000;fill-opacity:1;stroke:none"
         transform="matrix(6.5133475,0,0,-6.7261078,439.33215,4659.2334)"><flowRegion
           id="flowRegion1073"><rect
             id="rect1075"
             width="504.91525"
             height="90"
             x="730.67798"
             y="259.32202" /></flowRegion><flowPara
           id="flowPara1077"
           style="font-size:16px">Legenda</flowPara></flowRoot><g
         style="overflow:visible"
         id="g1161"
         transform="matrix(34.043623,0,0,-29.647829,1094.3628,4755.7083)"><path
           style="fill:#231f20"
           d="m 2.12845,28.46135 c 0,-2.71035 0.7277,-4.83075 2.1831,-6.3631 1.4554,-1.5333 3.3345,-2.29995 5.63635,-2.29995 1.50765,0 2.86615,0.36005 4.07645,1.08015 1.2103,0.72105 2.13275,1.72425 2.7683,3.01245 0.63555,1.2882 0.9519,2.7493 0.9519,4.3814 0,1.65585 -0.3344,3.1369 -1.00225,4.44315 -0.66785,1.30625 -1.615,2.29615 -2.8405,2.9678 -1.2255,0.67165 -2.54695,1.00795 -3.9653,1.00795 -1.5371,0 -2.9108,-0.37145 -4.1211,-1.1134 C 4.6051,34.83585 3.68835,33.82125 3.0642,32.5378 2.44005,31.25435 2.12845,29.8949 2.12845,28.46135 Z m 2.2268,0.02755 c 0,1.9665 0.52915,3.51595 1.58745,4.64835 1.0583,1.1324 2.3864,1.69765 3.9824,1.69765 1.6264,0 2.96495,-0.5719 4.0166,-1.71475 1.0507,-1.14285 1.57605,-2.7645 1.57605,-4.86495 0,-1.3281 -0.2242,-2.48805 -0.67355,-3.4789 -0.44935,-0.99085 -1.10675,-1.7594 -1.9722,-2.3047 -0.86545,-0.5453 -1.83635,-0.81795 -2.9127,-0.81795 -1.5295,0 -2.8462,0.52535 -3.94915,1.5751 -1.10295,1.04975 -1.6549,2.80345 -1.6549,5.26015 z"
           id="path5"
           inkscape:connector-curvature="0" /><path
           style="fill:#231f20"
           d="m 34.76095,9.60385 c 0,-2.71035 0.7277,-4.83075 2.1831,-6.3631 1.4554,-1.5333 3.33355,-2.29995 5.6354,-2.29995 1.50765,0 2.86615,0.36005 4.07645,1.08015 1.2103,0.72105 2.13275,1.72425 2.7683,3.01245 0.63555,1.2882 0.95285,2.7493 0.95285,4.3814 0,1.65585 -0.3344,3.1369 -1.0032,4.44315 -0.6688,1.30625 -1.615,2.29615 -2.8405,2.9678 -1.2255,0.67165 -2.54695,1.00795 -3.9653,1.00795 -1.5371,0 -2.9108,-0.37145 -4.1211,-1.1134 -1.2103,-0.74195 -2.12705,-1.75655 -2.7512,-3.04 -0.62415,-1.28345 -0.9348,-2.6429 -0.9348,-4.07645 z M 36.9868,9.6314 c 0,1.9665 0.52915,3.51595 1.58745,4.64835 1.0583,1.1324 2.3864,1.69765 3.9824,1.69765 1.6264,0 2.96495,-0.5719 4.0166,-1.71475 1.0507,-1.14285 1.577,-2.7645 1.577,-4.86495 0,-1.3281 -0.2242,-2.48805 -0.6745,-3.4789 C 47.0264,4.92795 46.369,4.1594 45.50355,3.6141 44.6381,3.0688 43.6672,2.79615 42.59085,2.79615 c -1.5295,0 -2.8462,0.52535 -3.94915,1.5751 -1.10295,1.04975 -1.6549,2.8044 -1.6549,5.26015 z"
           id="path9"
           inkscape:connector-curvature="0" /><path
           id="polygon11"
           d="M 31.47775,10.80655 32.28525,12.1831 17.5118,20.68655 16.70525,19.3081 Z"
           style="fill:#231f20"
           inkscape:connector-curvature="0" /><path
           id="polygon13"
           d="m 34.28025,15.69905 0.80655,1.37655 -3.4675,2.04345 -0.8075,-1.425 z"
           style="fill:#231f20"
           inkscape:connector-curvature="0" /><path
           id="polygon15"
           d="m 28.6743,18.93 0.8075,1.425 -3.51405,1.99405 -0.8075,-1.37845 z"
           style="fill:#231f20"
           inkscape:connector-curvature="0" /><path
           id="polygon17"
           d="m 23.02275,22.20655 0.8075,1.37655 -3.46845,2.0425 -0.80655,-1.425 z"
           style="fill:#231f20"
           inkscape:connector-curvature="0" /><path
           style="fill:#231f20"
           d="m 67.39345,28.46135 c 0,-2.71035 0.7277,-4.83075 2.1831,-6.3631 1.4554,-1.5333 3.3345,-2.29995 5.63635,-2.29995 1.50765,0 2.8671,0.36005 4.07645,1.08015 1.20935,0.72105 2.13275,1.72425 2.7683,3.01245 0.6346,1.28725 0.9519,2.7493 0.9519,4.3814 0,1.65585 -0.3344,3.1369 -1.00225,4.44315 -0.6688,1.30625 -1.61595,2.29615 -2.8405,2.9678 -1.2255,0.67165 -2.5479,1.00795 -3.9653,1.00795 -1.5371,0 -2.9108,-0.37145 -4.1211,-1.1134 -1.2103,-0.74195 -2.12705,-1.75655 -2.7512,-3.04 -0.62415,-1.28535 -0.93575,-2.6429 -0.93575,-4.07645 z m 2.22585,0.02755 c 0,1.9665 0.52915,3.51595 1.58745,4.64835 1.0583,1.1324 2.3864,1.69765 3.9824,1.69765 1.6264,0 2.96495,-0.5719 4.0166,-1.71475 1.05165,-1.14285 1.57605,-2.7645 1.57605,-4.86495 0,-1.3281 -0.2242,-2.48805 -0.67355,-3.4789 -0.4503,-0.99085 -1.1077,-1.7594 -1.9722,-2.3047 -0.8645,-0.5453 -1.83635,-0.81795 -2.9127,-0.81795 -1.5295,0 -2.8462,0.52535 -3.94915,1.5751 -1.10295,1.04975 -1.6549,2.80345 -1.6549,5.26015 z"
           id="path21"
           inkscape:connector-curvature="0" /><path
           id="polygon23"
           d="m 68.4318,19.3081 -0.80655,1.37845 -14.725,-8.50345 0.80655,-1.37655 z"
           style="fill:#231f20"
           inkscape:connector-curvature="0" /><path
           id="polygon25"
           d="m 65.5818,24.2006 -0.80655,1.425 -3.46845,-2.0425 0.8075,-1.37655 z"
           style="fill:#231f20"
           inkscape:connector-curvature="0" /><path
           id="polygon27"
           d="M 59.9768,20.9706 59.1693,22.34905 55.65525,20.355 56.46275,18.93 Z"
           style="fill:#231f20"
           inkscape:connector-curvature="0" /><path
           id="polygon29"
           d="M 54.37275,17.7425 53.5643,19.11905 50.05025,17.0756 50.8568,15.69905 Z"
           style="fill:#231f20"
           inkscape:connector-curvature="0" /></g><flowRoot
         xml:space="preserve"
         id="flowRoot1163"
         style="font-style:normal;font-weight:normal;font-size:40px;line-height:1.25;font-family:sans-serif;letter-spacing:0px;word-spacing:0px;fill:#000000;fill-opacity:1;stroke:none"
         transform="matrix(10.683563,0,0,-10.227391,39.251549,4640.538)"><flowRegion
           id="flowRegion1165"><rect
             id="rect1167"
             width="799.32202"
             height="64.830505"
             x="14.491526"
             y="-66.355934" /></flowRegion><flowPara
           id="flowPara1169"
           style="font-size:18.66666603px">Wykres zalenoci Wiatru i ozonu od dni w Czerwcu</flowPara></flowRoot></g></g></svg>